<svg width="70" height="70" viewBox="0 0 70 70" fill="none" xmlns="http://www.w3.org/2000/svg">
<path fill-rule="evenodd" clip-rule="evenodd" d="M39 35C39 37.2091 37.2091 39 35 39C32.7909 39 31 37.2091 31 35C31 32.7909 32.7909 31 35 31C37.2091 31 39 32.7909 39 35ZM37.5 35C37.5 36.3807 36.3807 37.5 35 37.5C33.6193 37.5 32.5 36.3807 32.5 35C32.5 33.6193 33.6193 32.5 35 32.5C36.3807 32.5 37.5 33.6193 37.5 35Z" fill="#F7F7F7"/>
<path fill-rule="evenodd" clip-rule="evenodd" d="M40.6667 28C40.2685 26.8056 39.1508 26 37.8918 26H32.1082C30.8492 26 29.7315 26.8056 29.3333 28C29.1343 28.5972 28.5754 29 27.9459 29H27C25.3431 29 24 30.3431 24 32V40C24 41.6569 25.3431 43 27 43H43C44.6569 43 46 41.6569 46 40V32C46 30.3431 44.6569 29 43 29H42.0541C41.4246 29 40.8657 28.5972 40.6667 28ZM25.5 40V32C25.5 31.1716 26.1716 30.5 27 30.5H27.9459C29.221 30.5 30.3531 29.684 30.7564 28.4743C30.9503 27.8925 31.4948 27.5 32.1082 27.5H37.8918C38.5052 27.5 39.0497 27.8925 39.2436 28.4743C39.6469 29.684 40.779 30.5 42.0541 30.5H43C43.8284 30.5 44.5 31.1716 44.5 32V40C44.5 40.8284 43.8284 41.5 43 41.5H27C26.1716 41.5 25.5 40.8284 25.5 40Z" fill="#F7F7F7"/>
<path opacity="0.1" d="M32.0613 5.12497C31.9532 4.0257 30.9728 3.21584 29.8825 3.39238C24.8968 4.19957 20.1627 6.17665 16.0736 9.17318C11.9846 12.1697 8.67332 16.0884 6.40183 20.5993C5.90505 21.5859 6.382 22.7646 7.39763 23.1989L7.83719 23.3868C8.85283 23.821 10.0217 23.3456 10.5285 22.3642C12.4778 18.5889 15.2789 15.3073 18.7206 12.7852C22.1623 10.2631 26.1352 8.58058 30.3223 7.85897C31.4108 7.67137 32.2162 6.69998 32.1081 5.60072L32.0613 5.12497Z" fill="white"/>
<path opacity="0.1" d="M5.69434 28.4933C4.61603 28.2539 3.54124 28.9335 3.3696 30.0246C2.58477 35.0139 2.99001 40.1282 4.56484 44.9469C6.13966 49.7655 8.83294 54.1321 12.4127 57.6949C13.1956 58.4741 14.4643 58.3877 15.1931 57.5577L15.5085 57.1985C16.2373 56.3685 16.1494 55.1097 15.3744 54.3226C12.3935 51.2949 10.1468 47.6115 8.82133 43.5558C7.49584 39.5 7.13361 35.2007 7.75119 30.997C7.91175 29.9042 7.23933 28.8364 6.16102 28.597L5.69434 28.4933Z" fill="white"/>
<path d="M19.6682 60.8089C19.104 61.7586 19.414 62.9918 20.397 63.4955C24.8917 65.799 29.8769 67.0109 34.9464 67.0194C40.0158 67.0279 45.005 65.8327 49.5075 63.5443C50.4921 63.0438 50.8063 61.8117 50.2453 60.8601L50.0025 60.4483C49.4416 59.4968 48.2182 59.1873 47.2285 59.6777C43.4215 61.5643 39.2207 62.5485 34.9539 62.5413C30.687 62.5342 26.4896 61.5359 22.6889 59.6366C21.7008 59.1429 20.4765 59.4483 19.9123 60.3979L19.6682 60.8089Z" fill="white" fill-opacity="0.1"/>
<path d="M62.5761 23.1377C63.5908 22.7013 64.0651 21.5214 63.5662 20.536C61.2847 16.0301 57.9648 12.1187 53.8691 9.13129C49.7734 6.14384 45.0349 4.17725 40.0475 3.38111C38.9567 3.207 37.9782 4.01903 37.8725 5.11853L37.8267 5.59438C37.721 6.69388 38.5286 7.66348 39.6175 7.84867C43.8062 8.561 47.7829 10.2347 51.2301 12.7492C54.6774 15.2636 57.4858 18.539 59.4435 22.31C59.9524 23.2903 61.1223 23.7631 62.137 23.3266L62.5761 23.1377Z" fill="#FF2B4E"/>
<path d="M54.8375 57.5308C55.5674 58.3599 56.8362 58.4445 57.618 57.6642C61.193 54.0966 63.8803 49.7264 65.4486 44.9056C67.0169 40.0848 67.4152 34.9699 66.6236 29.9818C66.4505 28.8908 65.3748 28.2128 64.2968 28.4536L63.8303 28.5579C62.7523 28.7988 62.0813 29.8675 62.2434 30.9601C62.8666 35.1629 62.5102 39.4627 61.1902 43.5203C59.8702 47.5778 57.6286 51.2643 54.6518 54.296C53.8779 55.0841 53.7916 56.343 54.5216 57.1721L54.8375 57.5308Z" fill="white" fill-opacity="0.1"/>
</svg>
