<svg width="70" height="70" viewBox="0 0 70 70" fill="none" xmlns="http://www.w3.org/2000/svg">
<path opacity="0.1" d="M32.0613 5.12497C31.9532 4.0257 30.9728 3.21584 29.8825 3.39238C24.8968 4.19957 20.1627 6.17665 16.0736 9.17318C11.9846 12.1697 8.67332 16.0884 6.40183 20.5993C5.90505 21.5859 6.382 22.7646 7.39763 23.1989L7.83719 23.3868C8.85283 23.821 10.0217 23.3456 10.5285 22.3642C12.4778 18.5889 15.2789 15.3073 18.7206 12.7852C22.1623 10.2631 26.1352 8.58058 30.3223 7.85897C31.4108 7.67137 32.2162 6.69998 32.1081 5.60072L32.0613 5.12497Z" fill="white"/>
<path opacity="0.1" d="M5.69434 28.4933C4.61603 28.2539 3.54124 28.9335 3.3696 30.0246C2.58477 35.0139 2.99001 40.1282 4.56484 44.9469C6.13966 49.7655 8.83294 54.1321 12.4127 57.6949C13.1956 58.4741 14.4643 58.3877 15.1931 57.5577L15.5085 57.1985C16.2373 56.3685 16.1494 55.1097 15.3744 54.3226C12.3935 51.2949 10.1468 47.6115 8.82133 43.5558C7.49584 39.5 7.13361 35.2007 7.75119 30.997C7.91175 29.9042 7.23933 28.8364 6.16102 28.597L5.69434 28.4933Z" fill="white"/>
<path d="M19.6682 60.8089C19.104 61.7586 19.414 62.9918 20.397 63.4955C24.8917 65.799 29.8769 67.0109 34.9464 67.0194C40.0158 67.0279 45.005 65.8327 49.5075 63.5443C50.4921 63.0438 50.8063 61.8117 50.2453 60.8601L50.0025 60.4483C49.4416 59.4968 48.2182 59.1873 47.2285 59.6777C43.4215 61.5643 39.2207 62.5485 34.9539 62.5413C30.687 62.5342 26.4896 61.5359 22.6889 59.6366C21.7008 59.1429 20.4765 59.4483 19.9123 60.3979L19.6682 60.8089Z" fill="#FF2B4E"/>
<path d="M62.5761 23.1377C63.5908 22.7013 64.0651 21.5214 63.5662 20.536C61.2847 16.0301 57.9648 12.1187 53.8691 9.13129C49.7734 6.14384 45.0349 4.17725 40.0475 3.38111C38.9567 3.207 37.9782 4.01903 37.8725 5.11853L37.8267 5.59438C37.721 6.69388 38.5286 7.66348 39.6175 7.84867C43.8062 8.561 47.7829 10.2347 51.2301 12.7492C54.6774 15.2636 57.4858 18.539 59.4435 22.31C59.9524 23.2903 61.1223 23.7631 62.137 23.3266L62.5761 23.1377Z" fill="#FF2B4E"/>
<path d="M54.8375 57.5308C55.5674 58.3599 56.8362 58.4445 57.618 57.6642C61.193 54.0966 63.8803 49.7264 65.4486 44.9056C67.0169 40.0848 67.4152 34.9699 66.6236 29.9818C66.4505 28.8908 65.3748 28.2128 64.2968 28.4536L63.8303 28.5579C62.7523 28.7988 62.0813 29.8675 62.2434 30.9601C62.8666 35.1629 62.5102 39.4627 61.1902 43.5203C59.8702 47.5778 57.6286 51.2643 54.6518 54.296C53.8779 55.0841 53.7916 56.343 54.5216 57.1721L54.8375 57.5308Z" fill="#FF2B4E"/>
<g clip-path="url(#clip0)">
<path d="M38.6207 34.3983C39.1128 34.3983 39.5117 33.9994 39.5117 33.5073C39.5117 33.0152 39.1128 32.6162 38.6207 32.6162C38.1286 32.6162 37.7296 33.0152 37.7296 33.5073C37.7296 33.9994 38.1286 34.3983 38.6207 34.3983Z" fill="#F7F7F7"/>
<path d="M31.3804 34.399C31.8731 34.399 32.2725 33.9995 32.2725 33.5068C32.2725 33.0142 31.8731 32.6147 31.3804 32.6147C30.8877 32.6147 30.4883 33.0142 30.4883 33.5068C30.4883 33.9995 30.8877 34.399 31.3804 34.399Z" fill="#F7F7F7"/>
<path d="M24.2506 42.0352C24.2698 42.449 24.6207 42.7688 25.0345 42.7497C25.4483 42.7305 25.7682 42.3796 25.749 41.9658L24.2506 42.0352ZM44.2506 41.9658C44.2314 42.3795 44.5513 42.7305 44.9651 42.7497C45.3789 42.7689 45.7298 42.449 45.749 42.0352L44.2506 41.9658ZM28.8071 39L29.557 38.9912L28.8071 39ZM41.1166 39L40.3667 38.9947L41.1166 39ZM28.3997 32.807C28.2797 32.4106 27.8611 32.1864 27.4646 32.3063C27.0682 32.4262 26.844 32.8449 26.9639 33.2413L28.3997 32.807ZM42.9483 33.2433C43.0693 32.8472 42.8463 32.428 42.4502 32.3069C42.0541 32.1859 41.6348 32.4089 41.5138 32.805L42.9483 33.2433ZM33.2958 40C33.2958 39.5858 32.96 39.25 32.5458 39.25C32.1315 39.25 31.7958 39.5858 31.7958 40H33.2958ZM38.3262 40.0005C38.3262 39.5863 37.9904 39.2505 37.5762 39.2505C37.1619 39.2505 36.8262 39.5863 36.8262 40.0005H38.3262ZM41.0237 44.2888L40.2739 44.2711L41.0237 44.2888ZM34.2793 35.676L33.8763 35.0434L34.2793 35.676ZM35.7266 35.6686L36.1295 35.036L35.7266 35.6686ZM25.749 41.9658C25.5985 38.716 25.5372 34.4057 25.5124 31.4328L24.0124 31.4454C24.0373 34.42 24.0987 38.7548 24.2506 42.0352L25.749 41.9658ZM28.2548 28.2734L30.0447 28.0267L29.8399 26.5407L28.0499 26.7874L28.2548 28.2734ZM32.7615 25.4927H37.2476V23.9927H32.7615V25.4927ZM39.9535 28.0264L41.7525 28.2744L41.9573 26.7884L40.1583 26.5405L39.9535 28.0264ZM44.4877 31.4255C44.4628 34.3986 44.4014 38.7133 44.2506 41.9658L45.749 42.0352C45.9012 38.7521 45.9627 34.4128 45.9876 31.438L44.4877 31.4255ZM28.0571 39.0089C28.0771 40.7033 28.1612 43.0437 28.2116 44.3345L29.7104 44.276C29.6601 42.9849 29.5767 40.663 29.557 38.9912L28.0571 39.0089ZM41.7735 44.3065C41.8041 43.0122 41.8546 40.6879 41.8666 39.0054L40.3667 38.9947C40.3547 40.6635 40.3045 42.9767 40.2739 44.2711L41.7735 44.3065ZM29.557 38.9912C29.5481 38.2386 29.5481 37.2721 29.5504 36.4914C29.5515 36.1016 29.5531 35.759 29.5545 35.5139C29.5552 35.3913 29.5559 35.2932 29.5563 35.2257C29.5565 35.192 29.5567 35.1659 29.5568 35.1483C29.5569 35.1395 29.557 35.1329 29.557 35.1284C29.557 35.1261 29.557 35.1245 29.557 35.1233C29.557 35.1228 29.557 35.1224 29.557 35.1221C29.557 35.1219 29.557 35.1218 29.557 35.1218C29.557 35.1217 29.557 35.1217 29.557 35.1217C29.557 35.1217 29.557 35.1217 28.8071 35.116C28.0571 35.1104 28.0571 35.1104 28.0571 35.1104C28.0571 35.1104 28.0571 35.1105 28.0571 35.1105C28.0571 35.1106 28.0571 35.1107 28.0571 35.1108C28.0571 35.1111 28.0571 35.1116 28.0571 35.1122C28.0571 35.1133 28.057 35.1151 28.057 35.1174C28.057 35.1219 28.0569 35.1287 28.0569 35.1376C28.0568 35.1554 28.0566 35.1817 28.0563 35.2157C28.0559 35.2836 28.0553 35.3823 28.0546 35.5054C28.0532 35.7515 28.0515 36.0956 28.0504 36.4871C28.0481 37.2692 28.0481 38.2448 28.0571 39.0089L29.557 38.9912ZM41.1166 35.116C40.3666 35.1195 40.3666 35.1195 40.3666 35.1195C40.3666 35.1195 40.3666 35.1195 40.3666 35.1196C40.3666 35.1196 40.3666 35.1197 40.3666 35.1199C40.3666 35.1201 40.3666 35.1206 40.3667 35.1211C40.3667 35.1223 40.3667 35.124 40.3667 35.1262C40.3667 35.1307 40.3667 35.1374 40.3668 35.1462C40.3668 35.1639 40.3669 35.19 40.3671 35.2238C40.3674 35.2913 40.3677 35.3895 40.3682 35.5122C40.369 35.7575 40.37 36.1004 40.3707 36.4905C40.3721 37.2715 40.372 38.2398 40.3667 38.9947L41.8666 39.0054C41.8721 38.2435 41.8721 37.2698 41.8707 36.4879C41.87 36.0967 41.869 35.753 41.8682 35.507C41.8677 35.384 41.8673 35.2855 41.8671 35.2177C41.8669 35.1837 41.8668 35.1575 41.8667 35.1397C41.8667 35.1309 41.8667 35.1241 41.8667 35.1195C41.8666 35.1172 41.8666 35.1155 41.8666 35.1144C41.8666 35.1138 41.8666 35.1133 41.8666 35.1131C41.8666 35.1129 41.8666 35.1128 41.8666 35.1127C41.8666 35.1127 41.8666 35.1126 41.8666 35.1126C41.8666 35.1126 41.8666 35.1126 41.1166 35.116ZM33.8763 35.0434C31.8543 36.3314 29.1903 35.4206 28.3997 32.807L26.9639 33.2413C28.0273 36.7566 31.7793 38.1576 34.6822 36.3085L33.8763 35.0434ZM41.5138 32.805C41.0662 34.2698 40.201 35.1201 39.258 35.4699C38.3085 35.822 37.1795 35.7048 36.1295 35.036L35.3237 36.3011C36.725 37.1938 38.3426 37.4092 39.7796 36.8763C41.2232 36.3409 42.3846 35.0883 42.9483 33.2433L41.5138 32.805ZM29.9578 46.0123H33.0459V44.5123H29.9578V46.0123ZM33.0459 45.2623C33.3938 44.5979 33.3963 44.5992 33.3988 44.6006C33.3997 44.601 33.4022 44.6024 33.4038 44.6033C33.4072 44.6051 33.4105 44.6069 33.4137 44.6087C33.4202 44.6124 33.4266 44.6161 33.4328 44.6198C33.4452 44.6273 33.457 44.6349 33.4682 44.6426C33.4907 44.658 33.5106 44.6735 33.5283 44.6886C33.5634 44.7187 33.5895 44.7473 33.6078 44.77C33.6433 44.8139 33.6546 44.8418 33.65 44.8317C33.6392 44.808 33.5906 44.6865 33.5338 44.3727C33.4207 43.7477 33.2958 42.4843 33.2958 40H31.7958C31.7958 42.5162 31.9209 43.884 32.0578 44.64C32.1261 45.0168 32.2026 45.2732 32.2855 45.4548C32.3278 45.5475 32.3782 45.6349 32.441 45.7127C32.473 45.7523 32.5099 45.7913 32.5523 45.8277C32.5736 45.846 32.5964 45.8636 32.6207 45.8802C32.6329 45.8886 32.6454 45.8966 32.6583 45.9044C32.6648 45.9083 32.6713 45.9121 32.6779 45.9159C32.6812 45.9177 32.6846 45.9196 32.6879 45.9214C32.6896 45.9223 32.6921 45.9236 32.693 45.9241C32.6955 45.9254 32.6981 45.9268 33.0459 45.2623ZM33.0459 46.0123H37.0763V44.5123H33.0459V46.0123ZM37.0763 46.0123H40.0255V44.5123H37.0763V46.0123ZM36.8262 40.0005C36.8262 42.4846 36.7013 43.7479 36.5882 44.3728C36.5314 44.6866 36.4829 44.8082 36.4721 44.8319C36.4675 44.842 36.4788 44.8141 36.5143 44.7701C36.5326 44.7474 36.5587 44.7189 36.5938 44.6888C36.6114 44.6737 36.6314 44.6581 36.6538 44.6427C36.665 44.635 36.6768 44.6274 36.6893 44.6199C36.6955 44.6162 36.7018 44.6125 36.7083 44.6088C36.7116 44.607 36.7149 44.6052 36.7182 44.6033C36.7199 44.6024 36.7224 44.6011 36.7232 44.6006C36.7257 44.5993 36.7283 44.598 37.0763 45.2623C37.4243 45.9267 37.4269 45.9254 37.4294 45.924C37.4303 45.9236 37.4328 45.9222 37.4345 45.9213C37.4378 45.9195 37.4411 45.9176 37.4445 45.9158C37.4511 45.912 37.4576 45.9082 37.4641 45.9043C37.477 45.8965 37.4895 45.8885 37.5017 45.8801C37.526 45.8635 37.5488 45.8458 37.5701 45.8276C37.6125 45.7912 37.6493 45.7521 37.6813 45.7125C37.7441 45.6347 37.7944 45.5473 37.8367 45.4547C37.9196 45.2731 37.9961 45.0167 38.0642 44.64C38.2011 43.884 38.3262 42.5164 38.3262 40.0005H36.8262ZM40.2739 44.2711C40.2708 44.4045 40.1617 44.5123 40.0255 44.5123V46.0123C40.9736 46.0123 41.7511 45.257 41.7735 44.3065L40.2739 44.2711ZM28.2116 44.3345C28.2482 45.2738 29.0209 46.0123 29.9578 46.0123V44.5123C29.8235 44.5123 29.7156 44.4071 29.7104 44.276L28.2116 44.3345ZM41.7525 28.2744C43.3306 28.4919 44.501 29.839 44.4877 31.4255L45.9876 31.438C46.0073 29.091 44.276 27.108 41.9573 26.7884L41.7525 28.2744ZM36.8088 25.1424C37.1546 26.6645 38.4072 27.8133 39.9535 28.0264L40.1583 26.5405C39.2306 26.4126 38.479 25.7233 38.2715 24.81L36.8088 25.1424ZM37.2476 25.4927C37.0375 25.4927 36.8554 25.3473 36.8088 25.1424L38.2715 24.81C38.1629 24.332 37.7379 23.9927 37.2476 23.9927V25.4927ZM34.6822 36.3085C34.8801 36.1825 35.1404 36.1844 35.3237 36.3011L36.1295 35.036C35.4401 34.5968 34.5511 34.6136 33.8763 35.0434L34.6822 36.3085ZM33.1985 25.1452C33.1515 25.3486 32.9703 25.4927 32.7615 25.4927V23.9927C32.272 23.9927 31.8473 24.3304 31.7371 24.8073L33.1985 25.1452ZM30.0447 28.0267C31.5919 27.8134 32.8468 26.6669 33.1985 25.1452L31.7371 24.8073C31.5255 25.7227 30.7706 26.4124 29.8399 26.5407L30.0447 28.0267ZM25.5124 31.4328C25.4991 29.8421 26.6726 28.4915 28.2548 28.2734L28.0499 26.7874C25.7271 27.1076 23.9928 29.0942 24.0124 31.4454L25.5124 31.4328Z" fill="#F7F7F7"/>
</g>
<defs>
<clipPath id="clip0">
<rect width="22" height="22" fill="white" transform="translate(24 24)"/>
</clipPath>
</defs>
</svg>
