<svg width="70" height="70" viewBox="0 0 70 70" fill="none" xmlns="http://www.w3.org/2000/svg">
<path fill-rule="evenodd" clip-rule="evenodd" d="M41.4101 25.9438L40.3821 26.9718L42.8177 29.4075L43.8458 28.3795C44.041 28.1842 44.041 27.8676 43.8458 27.6724L42.1172 25.9438C41.9219 25.7485 41.6053 25.7485 41.4101 25.9438ZM39.3214 25.9112L39.3175 25.9151L38.5214 25.1189C37.7403 24.3379 36.474 24.3379 35.693 25.1189L33.9054 26.9065C33.1244 27.6875 33.1244 28.9539 33.9054 29.7349L36.4627 32.2922L32.5024 36.2525L29.9452 33.6954C29.1642 32.9143 27.8978 32.9143 27.1168 33.6954L25.3292 35.4829C24.5482 36.264 24.5482 37.5303 25.3292 38.3113L26.1256 39.1077L26.1216 39.1117L25.0936 40.1397C24.3125 40.9208 24.3125 42.1871 25.0936 42.9682L26.8221 44.6967C27.6032 45.4778 28.8695 45.4778 29.6506 44.6967L30.6786 43.6687L30.6826 43.6647L31.4786 44.4607C32.2596 45.2418 33.526 45.2418 34.307 44.4607L36.0946 42.6732C36.8756 41.8921 36.8756 40.6258 36.0946 39.8447L33.563 37.3132L37.5234 33.3529L40.0548 35.8843C40.8358 36.6653 42.1022 36.6653 42.8832 35.8843L44.6708 34.0967C45.4518 33.3157 45.4518 32.0494 44.6708 31.2683L43.8745 30.4721L43.8784 30.4682L44.9064 29.4402C45.6875 28.6591 45.6875 27.3928 44.9064 26.6117L43.1778 24.8831C42.3968 24.1021 41.1305 24.1021 40.3494 24.8832L39.3214 25.9112ZM36.7536 26.1796L34.9661 27.9672C34.7708 28.1624 34.7708 28.479 34.9661 28.6743L41.1154 34.8236C41.3107 35.0189 41.6273 35.0189 41.8225 34.8236L43.6101 33.0361C43.8054 32.8408 43.8054 32.5242 43.6101 32.329L37.4607 26.1796C37.2655 25.9843 36.9489 25.9843 36.7536 26.1796ZM35.0339 41.6125L33.2464 43.4C33.0511 43.5953 32.7345 43.5953 32.5393 43.4L26.3899 37.2507C26.1946 37.0554 26.1946 36.7388 26.3899 36.5436L28.1774 34.756C28.3727 34.5608 28.6893 34.5608 28.8846 34.756L35.0339 40.9054C35.2292 41.1007 35.2292 41.4172 35.0339 41.6125ZM28.5899 43.6361L29.6179 42.6081L27.1823 40.1724L26.1542 41.2004C25.959 41.3957 25.959 41.7122 26.1542 41.9075L27.8828 43.6361C28.0781 43.8313 28.3946 43.8313 28.5899 43.6361Z" fill="#F7F7F7"/>
<path d="M32.0613 5.12497C31.9532 4.0257 30.9728 3.21584 29.8825 3.39238C24.8968 4.19957 20.1627 6.17665 16.0736 9.17318C11.9846 12.1697 8.67332 16.0884 6.40183 20.5993C5.90505 21.5859 6.382 22.7646 7.39763 23.1989L7.83719 23.3868C8.85283 23.821 10.0217 23.3456 10.5285 22.3642C12.4778 18.5889 15.2789 15.3073 18.7206 12.7852C22.1623 10.2631 26.1352 8.58058 30.3223 7.85897C31.4108 7.67137 32.2162 6.69998 32.1081 5.60072L32.0613 5.12497Z" fill="#FF2B4E"/>
<path d="M5.69434 28.4933C4.61603 28.2539 3.54124 28.9335 3.3696 30.0246C2.58477 35.0139 2.99001 40.1282 4.56484 44.9469C6.13966 49.7655 8.83294 54.1321 12.4127 57.6949C13.1956 58.4741 14.4643 58.3877 15.1931 57.5577L15.5085 57.1985C16.2373 56.3685 16.1494 55.1097 15.3744 54.3226C12.3935 51.2949 10.1468 47.6115 8.82133 43.5558C7.49584 39.5 7.13361 35.2007 7.75119 30.997C7.91175 29.9042 7.23933 28.8364 6.16102 28.597L5.69434 28.4933Z" fill="#FF2B4E"/>
<path d="M19.6682 60.8089C19.104 61.7586 19.414 62.9918 20.397 63.4955C24.8917 65.799 29.8769 67.0109 34.9464 67.0194C40.0158 67.0279 45.005 65.8327 49.5075 63.5443C50.4921 63.0438 50.8063 61.8117 50.2453 60.8601L50.0025 60.4483C49.4416 59.4968 48.2182 59.1873 47.2285 59.6777C43.4215 61.5643 39.2207 62.5485 34.9539 62.5413C30.687 62.5342 26.4896 61.5359 22.6889 59.6366C21.7008 59.1429 20.4765 59.4483 19.9123 60.3979L19.6682 60.8089Z" fill="#FF2B4E"/>
<path d="M62.5761 23.1377C63.5908 22.7013 64.0651 21.5214 63.5662 20.536C61.2847 16.0301 57.9648 12.1187 53.8691 9.13129C49.7734 6.14384 45.0349 4.17725 40.0475 3.38111C38.9567 3.207 37.9782 4.01903 37.8725 5.11853L37.8267 5.59438C37.721 6.69388 38.5286 7.66348 39.6175 7.84867C43.8062 8.561 47.7829 10.2347 51.2301 12.7492C54.6774 15.2636 57.4858 18.539 59.4435 22.31C59.9524 23.2903 61.1223 23.7631 62.137 23.3266L62.5761 23.1377Z" fill="#FF2B4E"/>
<path d="M54.8375 57.5308C55.5674 58.3599 56.8362 58.4445 57.618 57.6642C61.193 54.0966 63.8803 49.7264 65.4486 44.9056C67.0169 40.0848 67.4152 34.9699 66.6236 29.9818C66.4505 28.8908 65.3748 28.2128 64.2968 28.4536L63.8303 28.5579C62.7523 28.7988 62.0813 29.8675 62.2434 30.9601C62.8666 35.1629 62.5102 39.4627 61.1902 43.5203C59.8702 47.5778 57.6286 51.2643 54.6518 54.296C53.8779 55.0841 53.7916 56.343 54.5216 57.1721L54.8375 57.5308Z" fill="#FF2B4E"/>
</svg>
