<svg width="70" height="70" viewBox="0 0 70 70" fill="none" xmlns="http://www.w3.org/2000/svg">
<path fill-rule="evenodd" clip-rule="evenodd" d="M37.498 29.4993C37.498 31.1561 38.8411 32.4993 40.498 32.4993C42.1549 32.4993 43.498 31.1561 43.498 29.4993C43.498 27.8424 42.1549 26.4993 40.498 26.4993C38.8411 26.4993 37.498 27.8424 37.498 29.4993ZM37.9983 41.0009C37.9983 42.3816 39.1176 43.5009 40.4983 43.5009C41.879 43.5009 42.9983 42.3816 42.9983 41.0009C42.9983 39.6202 41.879 38.5009 40.4983 38.5009C39.1176 38.5009 37.9983 39.6202 37.9983 41.0009ZM27.0002 41.0009C27.0002 42.1064 27.8963 43.0026 29.0018 43.0026C30.1073 43.0026 31.0035 42.1064 31.0035 41.0009C31.0035 39.8954 30.1073 38.9993 29.0018 38.9993C27.8963 38.9993 27.0002 39.8954 27.0002 41.0009ZM26.5018 29.4993C26.5018 30.88 27.6211 31.9993 29.0018 31.9993C30.3825 31.9993 31.5018 30.88 31.5018 29.4993C31.5018 28.1186 30.3825 26.9993 29.0018 26.9993C27.6211 26.9993 26.5018 28.1186 26.5018 29.4993ZM35.998 29.4993C35.998 31.9845 38.0127 33.9993 40.498 33.9993C42.9833 33.9993 44.998 31.9845 44.998 29.4993C44.998 27.014 42.9833 24.9993 40.498 24.9993C38.0127 24.9993 35.998 27.014 35.998 29.4993ZM36.4983 41.0009C36.4983 43.21 38.2891 45.0009 40.4983 45.0009C42.7074 45.0009 44.4983 43.21 44.4983 41.0009C44.4983 38.7918 42.7074 37.0009 40.4983 37.0009C38.2891 37.0009 36.4983 38.7918 36.4983 41.0009ZM29.0018 44.5026C27.0679 44.5026 25.5002 42.9349 25.5002 41.0009C25.5002 39.067 27.0679 37.4993 29.0018 37.4993C30.9358 37.4993 32.5035 39.067 32.5035 41.0009C32.5035 42.9349 30.9358 44.5026 29.0018 44.5026ZM25.0018 29.4993C25.0018 31.7084 26.7927 33.4993 29.0018 33.4993C31.211 33.4993 33.0018 31.7084 33.0018 29.4993C33.0018 27.2901 31.211 25.4993 29.0018 25.4993C26.7927 25.4993 25.0018 27.2901 25.0018 29.4993Z" fill="#F7F7F7"/>
<path opacity="0.1" d="M32.0613 5.12485C31.9532 4.02558 30.9728 3.21572 29.8825 3.39225C24.8968 4.19944 20.1627 6.17653 16.0736 9.17305C11.9846 12.1696 8.67332 16.0883 6.40183 20.5992C5.90505 21.5858 6.382 22.7645 7.39763 23.1988L7.83719 23.3867C8.85283 23.8209 10.0217 23.3455 10.5285 22.364C12.4778 18.5888 15.2789 15.3072 18.7206 12.7851C22.1623 10.263 26.1352 8.58046 30.3223 7.85885C31.4108 7.67125 32.2162 6.69986 32.1081 5.6006L32.0613 5.12485Z" fill="white"/>
<path opacity="0.1" d="M5.69434 28.4932C4.61603 28.2538 3.54124 28.9334 3.3696 30.0245C2.58477 35.0137 2.99001 40.1281 4.56484 44.9467C6.13966 49.7654 8.83294 54.132 12.4127 57.6947C13.1956 58.4739 14.4643 58.3876 15.1931 57.5576L15.5085 57.1984C16.2373 56.3684 16.1494 55.1096 15.3744 54.3225C12.3935 51.2948 10.1468 47.6114 8.82133 43.5556C7.49584 39.4999 7.13361 35.2006 7.75119 30.9969C7.91175 29.904 7.23933 28.8363 6.16102 28.5968L5.69434 28.4932Z" fill="white"/>
<path opacity="0.1" d="M19.6682 60.8088C19.104 61.7584 19.414 62.9917 20.397 63.4954C24.8917 65.7989 29.8769 67.0108 34.9464 67.0193C40.0158 67.0277 45.005 65.8325 49.5075 63.5442C50.4921 63.0437 50.8062 61.8115 50.2453 60.86L50.0025 60.4482C49.4416 59.4967 48.2182 59.1872 47.2285 59.6776C43.4215 61.5641 39.2207 62.5484 34.9539 62.5412C30.687 62.5341 26.4896 61.5358 22.6889 59.6365C21.7008 59.1428 20.4765 59.4482 19.9123 60.3978L19.6682 60.8088Z" fill="white"/>
<path d="M62.5761 23.1376C63.5908 22.7011 64.0651 21.5213 63.5662 20.5359C61.2847 16.03 57.9648 12.1186 53.8691 9.13117C49.7734 6.14372 45.0349 4.17713 40.0475 3.38099C38.9567 3.20687 37.9782 4.0189 37.8725 5.11841L37.8267 5.59426C37.721 6.69376 38.5286 7.66336 39.6175 7.84854C43.8062 8.56088 47.7829 10.2346 51.2301 12.749C54.6774 15.2635 57.4858 18.5389 59.4435 22.3098C59.9524 23.2902 61.1223 23.763 62.137 23.3265L62.5761 23.1376Z" fill="#FF2B4E"/>
<path d="M54.8375 57.5307C55.5674 58.3598 56.8362 58.4444 57.618 57.6641C61.193 54.0965 63.8803 49.7263 65.4486 44.9055C67.0169 40.0847 67.4152 34.9698 66.6236 29.9816C66.4505 28.8907 65.3748 28.2126 64.2968 28.4535L63.8303 28.5578C62.7523 28.7986 62.0813 29.8673 62.2434 30.96C62.8666 35.1628 62.5102 39.4626 61.1902 43.5201C59.8702 47.5777 57.6286 51.2642 54.6518 54.2958C53.8779 55.084 53.7916 56.3429 54.5216 57.1719L54.8375 57.5307Z" fill="#FF2B4E"/>
</svg>
