<svg width="70" height="70" viewBox="0 0 70 70" fill="none" xmlns="http://www.w3.org/2000/svg">
<path opacity="0.1" d="M32.0613 5.12485C31.9532 4.02558 30.9728 3.21572 29.8825 3.39225C24.8968 4.19944 20.1627 6.17653 16.0736 9.17305C11.9846 12.1696 8.67332 16.0883 6.40183 20.5992C5.90505 21.5858 6.382 22.7645 7.39763 23.1988L7.83719 23.3867C8.85283 23.8209 10.0217 23.3455 10.5285 22.364C12.4778 18.5888 15.2789 15.3072 18.7206 12.7851C22.1623 10.263 26.1352 8.58046 30.3223 7.85885C31.4108 7.67125 32.2162 6.69986 32.1081 5.6006L32.0613 5.12485Z" fill="white"/>
<path d="M5.69434 28.4932C4.61603 28.2538 3.54124 28.9334 3.3696 30.0245C2.58477 35.0137 2.99001 40.1281 4.56484 44.9467C6.13966 49.7654 8.83294 54.132 12.4127 57.6947C13.1956 58.4739 14.4643 58.3876 15.1931 57.5576L15.5085 57.1984C16.2373 56.3684 16.1494 55.1096 15.3744 54.3225C12.3935 51.2948 10.1468 47.6114 8.82133 43.5556C7.49584 39.4999 7.13361 35.2006 7.75119 30.9969C7.91175 29.904 7.23933 28.8363 6.16102 28.5968L5.69434 28.4932Z" fill="#FF2B4E"/>
<path d="M19.6682 60.8088C19.104 61.7584 19.414 62.9917 20.397 63.4954C24.8917 65.7989 29.8769 67.0108 34.9464 67.0193C40.0158 67.0277 45.005 65.8325 49.5075 63.5442C50.4921 63.0437 50.8062 61.8115 50.2453 60.86L50.0025 60.4482C49.4416 59.4967 48.2182 59.1872 47.2285 59.6776C43.4215 61.5641 39.2207 62.5484 34.9539 62.5412C30.687 62.5341 26.4896 61.5358 22.6889 59.6365C21.7008 59.1428 20.4765 59.4482 19.9123 60.3978L19.6682 60.8088Z" fill="#FF2B4E"/>
<path d="M62.5761 23.1376C63.5908 22.7011 64.0651 21.5213 63.5662 20.5359C61.2847 16.03 57.9648 12.1186 53.8691 9.13117C49.7734 6.14372 45.0349 4.17713 40.0475 3.38099C38.9567 3.20687 37.9782 4.0189 37.8725 5.11841L37.8267 5.59426C37.721 6.69376 38.5286 7.66336 39.6175 7.84854C43.8062 8.56088 47.7829 10.2346 51.2301 12.749C54.6774 15.2635 57.4858 18.5389 59.4435 22.3098C59.9524 23.2902 61.1223 23.763 62.137 23.3265L62.5761 23.1376Z" fill="#FF2B4E"/>
<path d="M54.8375 57.5307C55.5674 58.3598 56.8362 58.4444 57.618 57.6641C61.193 54.0965 63.8803 49.7263 65.4486 44.9055C67.0169 40.0847 67.4152 34.9698 66.6236 29.9816C66.4505 28.8907 65.3748 28.2126 64.2968 28.4535L63.8303 28.5578C62.7523 28.7986 62.0813 29.8673 62.2434 30.96C62.8666 35.1628 62.5102 39.4626 61.1902 43.5201C59.8702 47.5777 57.6286 51.2642 54.6518 54.2958C53.8779 55.084 53.7916 56.3429 54.5216 57.1719L54.8375 57.5307Z" fill="#FF2B4E"/>
<g clip-path="url(#clip0)">
<path d="M45.1576 30.8392C44.1686 31.1113 44.1107 31.2894 43.1615 32.1223C42.9464 32.3111 42.6968 32.4614 42.416 32.5166C40.7958 32.8348 38.3829 32.1722 36.0623 32.9678C33.5098 33.843 31.4483 35.9715 30.2701 36.8691C30.0409 37.0436 29.7279 36.9477 29.6084 36.6856C28.6736 34.6355 26.6445 29.9208 26.6445 29.9208" stroke="#F7F7F7" stroke-width="1.5" stroke-linecap="round"/>
<path d="M45.191 50.3332C44.9469 48.4506 44.2536 45.0807 44.1672 42.1486C44.1459 41.424 43.4157 40.8744 42.7153 41.0613C39.2734 41.98 32.9793 42.9507 28.2256 43.4089C27.897 43.4406 27.5749 43.306 27.3723 43.0453C26.759 42.2561 25.4433 40.4758 24.8047 38.951" stroke="#F7F7F7" stroke-width="1.5" stroke-linecap="round"/>
<path d="M35.8296 24.6039L36.2538 24.1796C36.1413 24.0671 35.9886 24.0038 35.8294 24.0039C35.6703 24.0039 35.5176 24.0672 35.4051 24.1798L35.8296 24.6039ZM35.2296 29.1142C35.2296 29.4456 35.4982 29.7142 35.8296 29.7142C36.1609 29.7142 36.4296 29.4456 36.4296 29.1142H35.2296ZM33.8822 25.704C33.648 25.9385 33.6481 26.3184 33.8826 26.5526C34.117 26.7868 34.4969 26.7866 34.7311 26.5522L33.8822 25.704ZM36.9295 26.5524C37.1638 26.7867 37.5437 26.7867 37.7781 26.5524C38.0124 26.3181 38.0124 25.9382 37.7781 25.7039L36.9295 26.5524ZM35.2296 24.6039V29.1142H36.4296V24.6039H35.2296ZM35.4051 24.1798L33.8822 25.704L34.7311 26.5522L36.254 25.028L35.4051 24.1798ZM35.4053 25.0281L36.9295 26.5524L37.7781 25.7039L36.2538 24.1796L35.4053 25.0281Z" fill="#F7F7F7" fill-opacity="0.5"/>
</g>
<defs>
<clipPath id="clip0">
<rect width="22" height="22" fill="white" transform="translate(24 24)"/>
</clipPath>
</defs>
</svg>
