<svg width="40" height="40" viewBox="0 0 40 40" fill="none" xmlns="http://www.w3.org/2000/svg">
<path d="M20 40C31.0457 40 40 31.0457 40 20C40 8.95431 31.0457 0 20 0C8.95431 0 0 8.95431 0 20C0 31.0457 8.95431 40 20 40Z" fill="#F7F7F7"/>
<path fill-rule="evenodd" clip-rule="evenodd" d="M9.29199 19.8218C14.9728 17.3468 18.7609 15.7151 20.6563 14.9268C26.0681 12.676 27.1926 12.285 27.9255 12.272C28.0867 12.2692 28.4472 12.3092 28.6806 12.4986C28.8778 12.6586 28.932 12.8747 28.958 13.0263C28.9839 13.178 29.0163 13.5235 28.9906 13.7934C28.6973 16.8747 27.4284 24.352 26.7828 27.8031C26.5096 29.2633 25.9718 29.753 25.451 29.8009C24.3194 29.905 23.4601 29.053 22.364 28.3346C20.6489 27.2103 19.68 26.5105 18.0152 25.4135C16.0912 24.1456 17.3384 23.4488 18.4349 22.31C18.7219 22.012 23.7079 17.4769 23.8044 17.0656C23.8165 17.0141 23.8277 16.8223 23.7137 16.721C23.5998 16.6198 23.4316 16.6544 23.3103 16.6819C23.1383 16.721 20.3984 18.5319 15.0906 22.1147C14.3129 22.6487 13.6084 22.9089 12.9773 22.8952C12.2815 22.8802 10.9431 22.5019 9.94812 22.1784C8.72775 21.7818 7.75783 21.572 7.84229 20.8983C7.88628 20.5474 8.36951 20.1886 9.29199 19.8218Z" fill="#171819"/>
</svg>
