<svg width="20" height="20" viewBox="0 0 20 20" fill="none" xmlns="http://www.w3.org/2000/svg">
<path fill-rule="evenodd" clip-rule="evenodd" d="M15.4269 8.16365C15.4277 8.14047 15.4281 8.11723 15.4281 8.09392V4.13629C15.4281 3.42176 15.0469 2.7615 14.4281 2.40424L11.0007 0.42542C10.3819 0.068154 9.61946 0.0681546 9.00065 0.42542L5.57324 2.40424C4.95444 2.7615 4.57324 3.42176 4.57324 4.13629V8.09392C4.57324 8.11723 4.57365 8.14047 4.57445 8.16365C4.55526 8.17391 4.53619 8.18451 4.51726 8.19544L1.08984 10.1743C0.471042 10.5315 0.0898438 11.1918 0.0898438 11.9063V15.8639C0.0898438 16.5785 0.471043 17.2387 1.08984 17.596L4.51726 19.5748C5.13606 19.9321 5.89846 19.9321 6.51726 19.5748L9.94467 17.596C9.96355 17.5851 9.98222 17.5739 10.0007 17.5624C10.0191 17.5739 10.0378 17.5851 10.0566 17.596L13.4841 19.5748C14.1029 19.9321 14.8653 19.9321 15.4841 19.5748L18.9115 17.596C19.5303 17.2387 19.9115 16.5785 19.9115 15.8639V11.9063C19.9115 11.1918 19.5303 10.5315 18.9115 10.1743L15.4841 8.19544C15.4651 8.18451 15.4461 8.17391 15.4269 8.16365ZM13.6781 3.70327L10.2507 1.72446C10.096 1.63514 9.90536 1.63514 9.75065 1.72446L6.32324 3.70327C6.16854 3.79259 6.07324 3.95765 6.07324 4.13629V8.00627C6.22647 8.05061 6.37563 8.11367 6.51726 8.19544L9.94467 10.1743C9.96355 10.1852 9.98222 10.1963 10.0007 10.2078C10.0191 10.1963 10.0378 10.1852 10.0566 10.1743L13.4841 8.19544C13.6257 8.11367 13.7748 8.05061 13.9281 8.00627V4.13629C13.9281 3.95766 13.8328 3.79259 13.6781 3.70327ZM10.8865 16.3431C10.9247 16.1882 10.9447 16.0275 10.9447 15.8639V11.9063C10.9447 11.883 10.9443 11.8598 10.9435 11.8366C10.9627 11.8263 10.9817 11.8157 11.0007 11.8048L14.4281 9.82597C14.5685 9.7449 14.6967 9.64823 14.8109 9.53887L18.1615 11.4733C18.3162 11.5626 18.4115 11.7277 18.4115 11.9063V15.8639C18.4115 16.0426 18.3162 16.2076 18.1615 16.297L14.7341 18.2758C14.5794 18.3651 14.3888 18.3651 14.2341 18.2758L10.8865 16.3431ZM9.05786 11.8366C9.05705 11.8598 9.05664 11.883 9.05664 11.9063V15.8639C9.05664 16.0275 9.07661 16.1882 9.11483 16.3431L5.76726 18.2758C5.61256 18.3651 5.42196 18.3651 5.26726 18.2758L1.83984 16.297C1.68514 16.2076 1.58984 16.0426 1.58984 15.8639V11.9063C1.58984 11.7277 1.68514 11.5626 1.83984 11.4733L5.19037 9.53887C5.30464 9.64823 5.43283 9.7449 5.57324 9.82597L9.00065 11.8048C9.01959 11.8157 9.03866 11.8263 9.05786 11.8366Z" fill="#222324"/>
</svg>
