<svg width="22" height="22" viewBox="0 0 22 22" fill="none" xmlns="http://www.w3.org/2000/svg">
<path fill-rule="evenodd" clip-rule="evenodd" d="M13.4981 5.49927C13.4981 7.15612 14.8413 8.49927 16.4981 8.49927C18.155 8.49927 19.4981 7.15612 19.4981 5.49927C19.4981 3.84241 18.155 2.49927 16.4981 2.49927C14.8413 2.49927 13.4981 3.84241 13.4981 5.49927ZM13.9984 17.0009C13.9984 18.3816 15.1177 19.5009 16.4984 19.5009C17.8791 19.5009 18.9984 18.3816 18.9984 17.0009C18.9984 15.6202 17.8791 14.5009 16.4984 14.5009C15.1177 14.5009 13.9984 15.6202 13.9984 17.0009ZM3.00028 17.0009C3.00028 18.1064 3.89646 19.0026 5.00195 19.0026C6.10745 19.0026 7.00363 18.1064 7.00363 17.0009C7.00363 15.8954 6.10745 14.9993 5.00195 14.9993C3.89646 14.9993 3.00028 15.8954 3.00028 17.0009ZM2.50195 5.49927C2.50195 6.87998 3.62124 7.99927 5.00195 7.99927C6.38267 7.99927 7.50195 6.87998 7.50195 5.49927C7.50195 4.11856 6.38267 2.99927 5.00195 2.99927C3.62124 2.99927 2.50195 4.11855 2.50195 5.49927ZM11.9981 5.49927C11.9981 7.98455 14.0128 9.99927 16.4981 9.99927C18.9834 9.99927 20.9981 7.98455 20.9981 5.49927C20.9981 3.01399 18.9834 0.999268 16.4981 0.999268C14.0128 0.999268 11.9981 3.01399 11.9981 5.49927ZM12.4984 17.0009C12.4984 19.21 14.2893 21.0009 16.4984 21.0009C18.7075 21.0009 20.4984 19.21 20.4984 17.0009C20.4984 14.7918 18.7075 13.0009 16.4984 13.0009C14.2893 13.0009 12.4984 14.7918 12.4984 17.0009ZM5.00195 20.5026C3.06803 20.5026 1.50028 18.9349 1.50028 17.0009C1.50028 15.067 3.06803 13.4993 5.00195 13.4993C6.93587 13.4993 8.50363 15.067 8.50363 17.0009C8.50363 18.9349 6.93587 20.5026 5.00195 20.5026ZM1.00195 5.49927C1.00195 7.70841 2.79281 9.49927 5.00195 9.49927C7.21109 9.49927 9.00195 7.70841 9.00195 5.49927C9.00195 3.29013 7.21109 1.49927 5.00195 1.49927C2.79281 1.49927 1.00195 3.29013 1.00195 5.49927Z" fill="#222324"/>
</svg>
