<svg width="22" height="22" viewBox="0 0 22 22" fill="none" xmlns="http://www.w3.org/2000/svg">
<path fill-rule="evenodd" clip-rule="evenodd" d="M5.08685 3.48922C5.08685 4.22622 4.4894 4.82366 3.75241 4.82366C3.01542 4.82366 2.41797 4.22622 2.41797 3.48922C2.41797 2.75223 3.01542 2.15479 3.75241 2.15479C4.4894 2.15479 5.08685 2.75223 5.08685 3.48922ZM6.58685 3.48922C6.58685 5.05464 5.31783 6.32366 3.75241 6.32366C2.18699 6.32366 0.917969 5.05464 0.917969 3.48922C0.917969 1.92381 2.18699 0.654785 3.75241 0.654785C5.31783 0.654785 6.58685 1.92381 6.58685 3.48922ZM8.93181 2.7251C8.53704 2.7251 8.21702 3.06088 8.21702 3.4751C8.21702 3.88931 8.53704 4.2251 8.93181 4.2251H20.3685C20.7633 4.2251 21.0833 3.88931 21.0833 3.4751C21.0833 3.06088 20.7633 2.7251 20.3685 2.7251H8.93181ZM8.93159 10.25C8.53682 10.25 8.2168 10.5858 8.2168 11C8.2168 11.4142 8.53682 11.75 8.93159 11.75H20.3683C20.7631 11.75 21.0831 11.4142 21.0831 11C21.0831 10.5858 20.7631 10.25 20.3683 10.25H8.93159ZM8.2172 18.5251C8.2172 18.1109 8.53722 17.7751 8.93199 17.7751H20.3687C20.7635 17.7751 21.0835 18.1109 21.0835 18.5251C21.0835 18.9393 20.7635 19.2751 20.3687 19.2751H8.93199C8.53722 19.2751 8.2172 18.9393 8.2172 18.5251ZM3.75241 12.3344C4.4894 12.3344 5.08685 11.737 5.08685 11C5.08685 10.263 4.4894 9.66553 3.75241 9.66553C3.01542 9.66553 2.41797 10.263 2.41797 11C2.41797 11.737 3.01542 12.3344 3.75241 12.3344ZM3.75241 13.8344C5.31783 13.8344 6.58685 12.5654 6.58685 11C6.58685 9.43455 5.31783 8.16553 3.75241 8.16553C2.18699 8.16553 0.917969 9.43455 0.917969 11C0.917969 12.5654 2.18699 13.8344 3.75241 13.8344ZM5.08685 18.5112C5.08685 19.2482 4.4894 19.8456 3.75241 19.8456C3.01542 19.8456 2.41797 19.2482 2.41797 18.5112C2.41797 17.7742 3.01542 17.1768 3.75241 17.1768C4.4894 17.1768 5.08685 17.7742 5.08685 18.5112ZM6.58685 18.5112C6.58685 20.0766 5.31783 21.3456 3.75241 21.3456C2.18699 21.3456 0.917969 20.0766 0.917969 18.5112C0.917969 16.9458 2.18699 15.6768 3.75241 15.6768C5.31783 15.6768 6.58685 16.9458 6.58685 18.5112Z" fill="#222324"/>
</svg>
