<svg width="22" height="22" viewBox="0 0 22 22" fill="none" xmlns="http://www.w3.org/2000/svg">
<path fill-rule="evenodd" clip-rule="evenodd" d="M7.9818 3.04246C7.32034 2.381 7.78881 1.25 8.72426 1.25H14C14.9665 1.25 15.75 2.0335 15.75 3V11.25H20C20.4142 11.25 20.75 11.5858 20.75 12C20.75 12.4142 20.4142 12.75 20 12.75H11C10.8619 12.75 10.75 12.8619 10.75 13V15C10.75 15.9665 9.9665 16.75 9 16.75H7C6.86193 16.75 6.75 16.8619 6.75 17V19C6.75 19.9665 5.9665 20.75 5 20.75H2C1.58579 20.75 1.25 20.4142 1.25 20C1.25 19.5858 1.58579 19.25 2 19.25H5C5.13807 19.25 5.25 19.1381 5.25 19V17C5.25 16.0335 6.0335 15.25 7 15.25H9C9.13807 15.25 9.25 15.1381 9.25 15V13C9.25 12.0335 10.0335 11.25 11 11.25H14.25V6.75H8.72426C7.78882 6.75 7.32034 5.619 7.9818 4.95754L8.93934 4L7.9818 3.04246ZM14.25 5.25V3C14.25 2.86193 14.1381 2.75 14 2.75H9.81066L10.3889 3.32825C10.7599 3.69925 10.7599 4.30075 10.3889 4.67175L9.81066 5.25H14.25Z" fill="#222324"/>
</svg>
