<svg width="20" height="22" viewBox="0 0 20 22" fill="none" xmlns="http://www.w3.org/2000/svg">
<path fill-rule="evenodd" clip-rule="evenodd" d="M7.50154 4.6252C7.50154 4.92552 7.5275 5.22275 7.57801 5.51399C7.43694 5.46271 7.29309 5.41733 7.14677 5.37812C5.62119 4.96935 3.9925 5.276 2.72004 6.2116L2.27733 6.53711C2.20558 6.58986 2.18001 6.68531 2.21577 6.76687L2.43641 7.27013C3.07059 8.71661 4.32774 9.79651 5.85331 10.2053C6.99178 10.5103 8.1877 10.417 9.25011 9.96113V11.4887C9.25011 11.9029 9.5859 12.2387 10.0001 12.2387C10.4143 12.2387 10.7501 11.9029 10.7501 11.4887V9.96096C11.8126 10.417 13.0087 10.5104 14.1473 10.2053C15.6729 9.79652 16.9299 8.71662 17.5641 7.27014L17.7847 6.76688C17.8205 6.68532 17.7949 6.58987 17.7232 6.53712L17.2805 6.2116C16.008 5.27601 14.3794 4.96936 12.8538 5.37813C12.7075 5.41735 12.5636 5.46274 12.4225 5.51403C12.473 5.22278 12.499 4.92554 12.499 4.6252C12.499 3.0458 11.7813 1.55199 10.5482 0.565047L10.1192 0.221668C10.0497 0.16602 9.95087 0.16602 9.88134 0.221667L9.45234 0.565046C8.21928 1.55199 7.50154 3.0458 7.50154 4.6252ZM10.0003 2.09647C10.6375 2.77726 10.999 3.67968 10.999 4.6252C10.999 5.57072 10.6375 6.47314 10.0003 7.15393C9.36305 6.47314 9.00155 5.57072 9.00155 4.6252C9.00155 3.67968 9.36305 2.77726 10.0003 2.09647ZM8.94264 8.44619C8.12012 8.8855 7.15485 9.00112 6.24154 8.7564C5.32824 8.51168 4.55014 7.92894 4.05747 7.13722C4.87999 6.69791 5.84522 6.58229 6.75853 6.82701C7.67183 7.07173 8.44997 7.65448 8.94264 8.44619ZM13.7591 8.75641C14.6724 8.51169 15.4504 7.92895 15.9431 7.13723C15.1205 6.69792 14.1554 6.5823 13.2421 6.82702C12.3288 7.07174 11.5507 7.65448 11.058 8.4462C11.8805 8.88551 12.8457 9.00113 13.7591 8.75641Z" fill="#222324"/>
<path d="M1.33447 17.2408C1.40486 17.3112 1.48575 17.3647 1.57211 17.4012C1.84514 17.5169 2.17276 17.4634 2.39529 17.2408L4.99194 14.6437C5.2848 14.3508 5.28476 13.8759 4.99184 13.583C4.69892 13.2902 4.22404 13.2902 3.93118 13.5831L1.86483 15.6499L1.31744 15.1025C1.02455 14.8096 0.549672 14.8096 0.256779 15.1025C-0.0361139 15.3954 -0.0361139 15.8702 0.256779 16.1631L1.33447 17.2408Z" fill="#222324"/>
<path d="M8.75003 15.1751C8.33581 15.1751 8 15.5108 8 15.9251C8 16.3393 8.3358 16.6751 8.75001 16.6751L19.25 16.6752C19.6642 16.6752 20 16.3394 20 15.9252C20 15.511 19.6642 15.1752 19.25 15.1752L8.75003 15.1751Z" fill="#222324"/>
<path d="M8.75003 19.4343C8.33581 19.4343 8 19.7701 8 20.1843C8 20.5985 8.3358 20.9343 8.75001 20.9343L19.25 20.9344C19.6642 20.9344 20 20.5987 20 20.1845C20 19.7702 19.6642 19.4344 19.25 19.4344L8.75003 19.4343Z" fill="#222324"/>
<path d="M1.31744 19.3617C1.02455 19.0689 0.549672 19.0689 0.256779 19.3617C-0.0361139 19.6546 -0.0361139 20.1295 0.256779 20.4224L1.32589 21.4915L1.33448 21.5002C1.62737 21.7931 2.10224 21.7931 2.39514 21.5002L5.00092 18.8945C5.29381 18.6016 5.29381 18.1267 5.00092 17.8338C4.70803 17.5409 4.23315 17.5409 3.94026 17.8338L1.86488 19.9092L1.31744 19.3617Z" fill="#222324"/>
</svg>
