<svg width="189" height="58" viewBox="0 0 189 58" fill="none" xmlns="http://www.w3.org/2000/svg">
<path d="M12.1362 57.997C11.6478 57.997 11.1713 57.9911 10.6868 57.9807C9.68306 57.9684 8.6817 57.8857 7.6909 57.7334C6.76702 57.5829 5.87204 57.3029 5.03546 56.9027C4.20656 56.5058 3.45053 55.9853 2.79634 55.3613C2.13268 54.7446 1.58015 54.0293 1.16066 53.2438C0.736537 52.4532 0.443021 51.6058 0.290333 50.731C0.125443 49.7911 0.0362305 48.8407 0.0234652 47.8881C0.0133034 47.5683 0 46.5036 0 46.5036V11.4771C0 11.4771 0.0141689 10.4287 0.0235453 10.1207C0.035768 9.16956 0.124462 8.22064 0.288858 7.28219C0.441828 6.40506 0.735572 5.5552 1.15992 4.76201C1.57788 3.97707 2.12733 3.26126 2.78699 2.64236C3.44591 2.01757 4.20436 1.49443 5.03468 1.09203C5.86933 0.693073 6.76262 0.41505 7.68463 0.267271C8.67869 0.113471 9.68353 0.0303193 10.6907 0.0185136L12.137 0H176.855L178.319 0.0192565C179.317 0.0304757 180.312 0.112886 181.297 0.265785C182.229 0.415418 183.131 0.695381 183.976 1.09647C185.639 1.90743 186.992 3.19046 187.846 4.76571C188.264 5.55342 188.553 6.39636 188.704 7.26591C188.87 8.21205 188.964 9.16843 188.983 10.1274C188.987 10.5568 188.987 11.0181 188.987 11.4771C189 12.0457 189 12.5869 189 13.1325V44.8658C189 45.4167 189 45.9542 188.987 46.4961C188.987 46.9892 188.987 47.4409 188.981 47.9058C188.962 48.8477 188.871 49.787 188.707 50.7162C188.558 51.5972 188.266 52.4513 187.842 53.2483C187.419 54.0253 186.87 54.7344 186.214 55.3494C185.559 55.9768 184.802 56.5003 183.971 56.8998C183.129 57.3031 182.228 57.5841 181.297 57.7334C180.307 57.8865 179.305 57.9692 178.301 57.9807C177.832 57.9911 177.34 57.997 176.863 57.997L175.126 58L12.1362 57.997Z" fill="#171819"/>
<path d="M37.7159 28.7332C37.7316 27.5083 38.057 26.3073 38.6617 25.2419C39.2663 24.1765 40.1307 23.2814 41.1742 22.6399C40.5113 21.693 39.6367 20.9139 38.6199 20.3642C37.6032 19.8145 36.4723 19.5095 35.317 19.4733C32.8526 19.2147 30.4635 20.948 29.2077 20.948C27.9276 20.948 25.9941 19.499 23.912 19.5419C22.5653 19.5854 21.2528 19.977 20.1024 20.6786C18.952 21.3801 18.003 22.3677 17.3478 23.5452C14.5095 28.4591 16.6266 35.681 19.3454 39.6531C20.7057 41.5982 22.2955 43.7708 24.3757 43.6938C26.4112 43.6093 27.1715 42.3957 29.6286 42.3957C32.0629 42.3957 32.7762 43.6938 34.8986 43.6448C37.0829 43.6093 38.4591 41.6911 39.7716 39.7277C40.749 38.3418 41.5011 36.81 42 35.1892C40.731 34.6525 39.6481 33.7541 38.8862 32.6061C38.1244 31.458 37.7173 30.1111 37.7159 28.7332Z" fill="white"/>
<path d="M33.7076 16.861C34.8986 15.4313 35.4853 13.5936 35.3432 11.7383C33.5237 11.9294 31.843 12.799 30.6359 14.1738C30.0458 14.8455 29.5938 15.6269 29.3058 16.4733C29.0178 17.3198 28.8994 18.2147 28.9575 19.1069C29.8676 19.1162 30.7679 18.919 31.5907 18.53C32.4135 18.1409 33.1373 17.5703 33.7076 16.861Z" fill="white"/>
<path d="M66.9112 39.0877H60.3528L58.7779 43.7382H56L62.212 26.5325H65.098L71.31 43.7382H68.4848L66.9112 39.0877ZM61.0321 36.9417H66.2306L63.6679 29.3943H63.5962L61.0321 36.9417Z" fill="white"/>
<path d="M84.726 37.4666C84.726 41.3648 82.6395 43.8693 79.4909 43.8693C78.6934 43.9111 77.9001 43.7273 77.2021 43.3392C76.5041 42.951 75.9295 42.3742 75.544 41.6746H75.4845V47.8879H72.9096V31.1938H75.402V33.2802H75.4493C75.8525 32.584 76.4368 32.0101 77.1401 31.6196C77.8435 31.2291 78.6395 31.0366 79.4436 31.0625C82.6273 31.0625 84.726 33.5792 84.726 37.4666ZM82.0794 37.4666C82.0794 34.9269 80.7669 33.2572 78.7643 33.2572C76.797 33.2572 75.4737 34.9621 75.4737 37.4666C75.4737 39.9941 76.797 41.6868 78.7643 41.6868C80.7669 41.6868 82.0794 40.0293 82.0794 37.4666Z" fill="white"/>
<path d="M98.5326 37.4666C98.5326 41.3648 96.4461 43.8693 93.2975 43.8693C92.4999 43.911 91.7067 43.7273 91.0087 43.3392C90.3107 42.951 89.736 42.3742 89.3506 41.6746H89.291V47.8879H86.7162V31.1937H89.2085V33.2802H89.2559C89.659 32.584 90.2433 32.0101 90.9467 31.6196C91.65 31.2291 92.4461 31.0366 93.2501 31.0625C96.434 31.0625 98.5326 33.5792 98.5326 37.4666ZM95.886 37.4666C95.886 34.9269 94.5735 33.2572 92.5709 33.2572C90.6036 33.2572 89.2803 34.9621 89.2803 37.4666C89.2803 39.9941 90.6036 41.6868 92.5709 41.6868C94.5735 41.6868 95.886 40.0293 95.886 37.4666Z" fill="white"/>
<path d="M107.658 38.9443C107.848 40.6505 109.506 41.7708 111.771 41.7708C113.941 41.7708 115.503 40.6504 115.503 39.112C115.503 37.7765 114.561 36.9768 112.331 36.4288L110.101 35.8917C106.942 35.1285 105.475 33.651 105.475 31.2533C105.475 28.2847 108.062 26.2456 111.736 26.2456C115.372 26.2456 117.864 28.2847 117.948 31.2533H115.349C115.193 29.5363 113.774 28.4998 111.699 28.4998C109.625 28.4998 108.206 29.5485 108.206 31.0747C108.206 32.2911 109.112 33.0069 111.33 33.5549L113.226 34.0203C116.756 34.8552 118.222 36.2732 118.222 38.7899C118.222 42.0088 115.658 44.0249 111.58 44.0249C107.765 44.0249 105.188 42.0562 105.022 38.9441L107.658 38.9443Z" fill="white"/>
<path d="M123.779 28.2251V31.1937H126.165V33.2328H123.779V40.1483C123.779 41.2227 124.257 41.7233 125.305 41.7233C125.589 41.7184 125.871 41.6985 126.152 41.6637V43.6906C125.681 43.7787 125.202 43.8186 124.722 43.8097C122.183 43.8097 121.192 42.8558 121.192 40.423V33.2328H119.368V31.1937H121.192V28.2251H123.779Z" fill="white"/>
<path d="M127.547 37.4667C127.547 33.5198 129.871 31.0396 133.496 31.0396C137.133 31.0396 139.447 33.5198 139.447 37.4667C139.447 41.4245 137.145 43.8938 133.496 43.8938C129.848 43.8938 127.547 41.4245 127.547 37.4667ZM136.823 37.4667C136.823 34.7592 135.582 33.1613 133.496 33.1613C131.41 33.1613 130.17 34.7714 130.17 37.4667C130.17 40.1851 131.41 41.7709 133.496 41.7709C135.582 41.7709 136.823 40.1851 136.823 37.4667Z" fill="white"/>
<path d="M141.57 31.1939H144.025V33.329H144.085C144.251 32.6622 144.642 32.0729 145.191 31.6601C145.741 31.2474 146.416 31.0364 147.102 31.0626C147.399 31.0616 147.695 31.0938 147.985 31.1587V33.5672C147.61 33.4527 147.219 33.4001 146.828 33.4116C146.454 33.3964 146.081 33.4623 145.735 33.6049C145.388 33.7475 145.077 33.9632 144.822 34.2374C144.567 34.5116 144.375 34.8377 144.258 35.1933C144.141 35.549 144.102 35.9257 144.145 36.2977V43.7382H141.57L141.57 31.1939Z" fill="white"/>
<path d="M159.857 40.0538C159.51 42.331 157.292 43.8938 154.455 43.8938C150.806 43.8938 148.541 41.4488 148.541 37.5263C148.541 33.5915 150.818 31.0396 154.347 31.0396C157.817 31.0396 160 33.4238 160 37.2272V38.1094H151.14V38.265C151.099 38.7267 151.157 39.1918 151.31 39.6294C151.462 40.067 151.706 40.4671 152.025 40.8032C152.345 41.1393 152.732 41.4036 153.161 41.5786C153.59 41.7536 154.051 41.8353 154.515 41.8182C155.123 41.8752 155.734 41.7343 156.256 41.4164C156.778 41.0985 157.183 40.6206 157.412 40.0538L159.857 40.0538ZM151.152 36.3099H157.424C157.447 35.8948 157.384 35.4794 157.239 35.0897C157.094 34.7001 156.87 34.3447 156.581 34.0457C156.292 33.7467 155.944 33.5107 155.56 33.3525C155.176 33.1942 154.763 33.1172 154.347 33.1261C153.928 33.1236 153.512 33.2041 153.124 33.3631C152.736 33.5221 152.383 33.7564 152.086 34.0524C151.789 34.3484 151.554 34.7002 151.393 35.0877C151.233 35.4752 151.151 35.8905 151.152 36.3099Z" fill="white"/>
<mask id="path-5-inside-1" fill="white">
<path d="M60.8031 11.0955C61.3567 11.0557 61.9123 11.1394 62.4298 11.3404C62.9472 11.5413 63.4136 11.8547 63.7953 12.2577C64.1769 12.6608 64.4644 13.1435 64.6369 13.6711C64.8095 14.1987 64.8627 14.7581 64.7929 15.3087C64.7929 18.0177 63.3288 19.5748 60.8031 19.5748H57.7402V11.0955H60.8031ZM59.0572 18.3757H60.6559C61.0516 18.3993 61.4475 18.3345 61.8149 18.1858C62.1823 18.0371 62.512 17.8084 62.7798 17.5163C63.0477 17.2242 63.247 16.876 63.3634 16.4971C63.4797 16.1182 63.5101 15.7181 63.4523 15.326C63.5059 14.9355 63.4724 14.5379 63.3543 14.1618C63.2362 13.7857 63.0364 13.4403 62.7691 13.1505C62.5018 12.8607 62.1738 12.6336 61.8085 12.4855C61.4431 12.3374 61.0496 12.2719 60.6559 12.2937H59.0572V18.3757Z"/>
<path d="M66.2805 16.3725C66.2402 15.952 66.2883 15.5277 66.4217 15.1269C66.555 14.726 66.7707 14.3575 67.0548 14.0449C67.339 13.7322 67.6853 13.4825 68.0716 13.3115C68.458 13.1406 68.8757 13.0523 69.2982 13.0523C69.7206 13.0523 70.1384 13.1406 70.5247 13.3115C70.911 13.4825 71.2574 13.7322 71.5415 14.0449C71.8257 14.3575 72.0413 14.726 72.1747 15.1269C72.308 15.5277 72.3561 15.952 72.3159 16.3725C72.3569 16.7935 72.3094 17.2184 72.1764 17.6199C72.0434 18.0213 71.8278 18.3906 71.5436 18.7038C71.2594 19.017 70.9128 19.2673 70.5261 19.4386C70.1394 19.6099 69.7211 19.6984 69.2982 19.6984C68.8752 19.6984 68.457 19.6099 68.0702 19.4386C67.6835 19.2673 67.3369 19.017 67.0527 18.7038C66.7685 18.3906 66.553 18.0213 66.42 17.6199C66.287 17.2184 66.2395 16.7935 66.2805 16.3725ZM71.0169 16.3725C71.0169 14.9854 70.3938 14.1743 69.3003 14.1743C68.2025 14.1743 67.585 14.9854 67.585 16.3725C67.585 17.7707 68.2026 18.5756 69.3003 18.5756C70.3938 18.5756 71.0169 17.7652 71.0169 16.3725Z"/>
<path d="M80.339 19.5747H79.029L77.7064 14.8618H77.6065L76.2895 19.5747H74.9919L73.2281 13.1757H74.509L75.6553 18.0585H75.7497L77.0653 13.1757H78.2768L79.5924 18.0585H79.6923L80.8331 13.1757H82.096L80.339 19.5747Z"/>
<path d="M83.5792 13.1757H84.7949V14.1923H84.8892C85.0493 13.8272 85.3193 13.5211 85.6616 13.3167C86.0039 13.1124 86.4015 13.0199 86.7988 13.0522C87.1102 13.0288 87.4228 13.0757 87.7136 13.1896C88.0043 13.3034 88.2657 13.4812 88.4784 13.7097C88.6911 13.9383 88.8497 14.2118 88.9424 14.51C89.035 14.8082 89.0594 15.1234 89.0137 15.4322V19.5747H87.7508V15.7494C87.7508 14.721 87.304 14.2096 86.37 14.2096C86.1586 14.1998 85.9476 14.2358 85.7514 14.3151C85.5552 14.3944 85.3785 14.5153 85.2333 14.6693C85.0882 14.8233 84.9781 15.0069 84.9106 15.2074C84.843 15.408 84.8196 15.6208 84.842 15.8312V19.5748H83.5792L83.5792 13.1757Z"/>
<path d="M91.0262 10.6777H92.2891V19.5748H91.0262V10.6777Z"/>
<path d="M94.0442 16.3726C94.004 15.9521 94.0521 15.5278 94.1855 15.1269C94.3189 14.7261 94.5346 14.3575 94.8188 14.0449C95.1029 13.7323 95.4493 13.4825 95.8357 13.3116C96.222 13.1406 96.6398 13.0523 97.0623 13.0523C97.4847 13.0523 97.9026 13.1406 98.2889 13.3116C98.6753 13.4825 99.0216 13.7323 99.3058 14.0449C99.5899 14.3575 99.8056 14.7261 99.939 15.1269C100.072 15.5278 100.121 15.9521 100.08 16.3726C100.121 16.7936 100.074 17.2185 99.9407 17.62C99.8076 18.0215 99.5921 18.3907 99.3078 18.7039C99.0236 19.0171 98.677 19.2674 98.2902 19.4387C97.9035 19.61 97.4852 19.6985 97.0623 19.6985C96.6393 19.6985 96.221 19.61 95.8343 19.4387C95.4476 19.2674 95.101 19.0171 94.8167 18.7039C94.5325 18.3907 94.3169 18.0215 94.1839 17.62C94.0508 17.2185 94.0033 16.7936 94.0442 16.3726ZM98.7807 16.3726C98.7807 14.9856 98.1576 14.1744 97.064 14.1744C95.9663 14.1744 95.3488 14.9856 95.3488 16.3727C95.3488 17.7709 95.9663 18.5758 97.064 18.5758C98.1576 18.5757 98.7807 17.7653 98.7807 16.3726Z"/>
<path d="M101.41 17.7652C101.41 16.6134 102.268 15.9493 103.79 15.8549L105.524 15.755V15.2027C105.524 14.5268 105.077 14.1452 104.214 14.1452C103.509 14.1452 103.02 14.404 102.88 14.8564H101.657C101.786 13.7573 102.82 13.0523 104.272 13.0523C105.876 13.0523 106.781 13.851 106.781 15.2027V19.5749H105.565V18.6756H105.465C105.263 18.9982 104.978 19.2612 104.64 19.4377C104.302 19.6142 103.924 19.6979 103.543 19.6803C103.275 19.7083 103.003 19.6796 102.746 19.5962C102.489 19.5128 102.253 19.3764 102.052 19.196C101.851 19.0156 101.69 18.795 101.579 18.5486C101.469 18.3022 101.411 18.0353 101.41 17.7652ZM105.524 17.2184V16.6834L103.961 16.7834C103.08 16.8423 102.68 17.1421 102.68 17.7062C102.68 18.2822 103.18 18.6173 103.867 18.6173C104.068 18.6377 104.271 18.6174 104.465 18.5575C104.658 18.4977 104.837 18.3996 104.992 18.2691C105.146 18.1386 105.273 17.9783 105.364 17.7978C105.456 17.6173 105.51 17.4203 105.524 17.2184Z"/>
<path d="M108.44 16.3725C108.44 14.3505 109.48 13.0696 111.097 13.0696C111.497 13.0512 111.894 13.1469 112.241 13.3458C112.588 13.5446 112.872 13.8382 113.059 14.1922H113.153V10.6777H114.416V19.5748H113.206V18.5638H113.106C112.905 18.9155 112.611 19.2054 112.257 19.4022C111.903 19.599 111.502 19.6952 111.097 19.6802C109.469 19.6803 108.44 18.3994 108.44 16.3725ZM109.745 16.3725C109.745 17.7298 110.385 18.5465 111.455 18.5465C112.519 18.5465 113.177 17.718 113.177 16.3781C113.177 15.0444 112.512 14.2041 111.455 14.2041C110.392 14.2041 109.745 15.0264 109.745 16.3725Z"/>
<path d="M119.641 16.3725C119.601 15.952 119.649 15.5277 119.782 15.1269C119.916 14.726 120.131 14.3575 120.415 14.0449C120.7 13.7322 121.046 13.4825 121.432 13.3115C121.819 13.1406 122.236 13.0523 122.659 13.0523C123.081 13.0523 123.499 13.1406 123.885 13.3115C124.272 13.4825 124.618 13.7322 124.902 14.0449C125.186 14.3575 125.402 14.726 125.535 15.1269C125.669 15.5277 125.717 15.952 125.677 16.3725C125.718 16.7935 125.67 17.2184 125.537 17.6199C125.404 18.0213 125.188 18.3906 124.904 18.7038C124.62 19.017 124.273 19.2673 123.887 19.4386C123.5 19.6099 123.082 19.6984 122.659 19.6984C122.236 19.6984 121.818 19.6099 121.431 19.4386C121.044 19.2673 120.698 19.017 120.413 18.7038C120.129 18.3906 119.914 18.0213 119.781 17.6199C119.648 17.2184 119.6 16.7935 119.641 16.3725ZM124.378 16.3725C124.378 14.9854 123.754 14.1743 122.661 14.1743C121.563 14.1743 120.946 14.9854 120.946 16.3725C120.946 17.7707 121.563 18.5756 122.661 18.5756C123.754 18.5756 124.378 17.7652 124.378 16.3725Z"/>
<path d="M127.371 13.1757H128.587V14.1923H128.682C128.842 13.8272 129.112 13.5211 129.454 13.3167C129.796 13.1124 130.194 13.0199 130.591 13.0522C130.903 13.0288 131.215 13.0757 131.506 13.1896C131.797 13.3034 132.058 13.4812 132.271 13.7097C132.483 13.9383 132.642 14.2118 132.735 14.51C132.827 14.8082 132.852 15.1234 132.806 15.4322V19.5747H131.543V15.7494C131.543 14.721 131.096 14.2096 130.162 14.2096C129.951 14.1998 129.74 14.2358 129.544 14.3151C129.348 14.3944 129.171 14.5153 129.026 14.6693C128.881 14.8233 128.77 15.0069 128.703 15.2074C128.635 15.408 128.612 15.6208 128.634 15.8312V19.5748H127.371V13.1757Z"/>
<path d="M139.942 11.5826V13.2049H141.328V14.2686H139.942V17.5591C139.942 18.2294 140.218 18.5229 140.847 18.5229C141.008 18.5224 141.169 18.5126 141.328 18.4937V19.5457C141.102 19.5862 140.872 19.6078 140.641 19.6102C139.237 19.6102 138.678 19.1161 138.678 17.8824V14.2686H137.662V13.2049H138.678V11.5826H139.942Z"/>
<path d="M143.053 10.6777H144.305V14.2041H144.405C144.573 13.8356 144.85 13.5278 145.199 13.3226C145.548 13.1175 145.952 13.025 146.356 13.0578C146.666 13.0409 146.975 13.0926 147.263 13.2092C147.55 13.3258 147.808 13.5044 148.019 13.7323C148.229 13.9601 148.387 14.2316 148.48 14.5274C148.574 14.8232 148.601 15.1359 148.56 15.4434V19.5748H147.296V15.7549C147.296 14.7328 146.82 14.2152 145.927 14.2152C145.71 14.1974 145.492 14.2272 145.288 14.3026C145.083 14.378 144.898 14.4971 144.744 14.6516C144.591 14.8062 144.473 14.9924 144.399 15.1972C144.325 15.402 144.297 15.6206 144.316 15.8375V19.5748H143.053L143.053 10.6777Z"/>
<path d="M155.924 17.8472C155.752 18.432 155.38 18.9379 154.873 19.2764C154.367 19.6148 153.757 19.7642 153.151 19.6985C152.729 19.7096 152.31 19.6289 151.923 19.4619C151.536 19.2948 151.19 19.0456 150.908 18.7313C150.627 18.417 150.418 18.0454 150.294 17.642C150.171 17.2387 150.137 16.8134 150.195 16.3956C150.139 15.9765 150.173 15.5503 150.296 15.1458C150.419 14.7412 150.628 14.3678 150.907 14.0508C151.187 13.7338 151.532 13.4806 151.918 13.3084C152.304 13.1361 152.723 13.0488 153.145 13.0524C154.926 13.0524 156 14.2689 156 16.2783V16.719H151.481V16.7897C151.462 17.0246 151.491 17.2609 151.568 17.4837C151.645 17.7064 151.768 17.9107 151.928 18.0833C152.088 18.2559 152.283 18.393 152.5 18.486C152.716 18.5789 152.95 18.6256 153.186 18.6229C153.488 18.6592 153.794 18.6048 154.065 18.4667C154.336 18.3285 154.56 18.1129 154.708 17.8472L155.924 17.8472ZM151.481 15.785H154.713C154.729 15.5702 154.7 15.3545 154.628 15.1517C154.555 14.9489 154.441 14.7634 154.293 14.6073C154.145 14.4512 153.965 14.3278 153.766 14.2452C153.568 14.1625 153.354 14.1223 153.138 14.1273C152.92 14.1245 152.703 14.1655 152.501 14.2479C152.299 14.3302 152.115 14.4522 151.96 14.6067C151.806 14.7612 151.684 14.9451 151.602 15.1474C151.519 15.3498 151.479 15.5666 151.481 15.785Z"/>
</mask>
<path d="M60.8031 11.0955C61.3567 11.0557 61.9123 11.1394 62.4298 11.3404C62.9472 11.5413 63.4136 11.8547 63.7953 12.2577C64.1769 12.6608 64.4644 13.1435 64.6369 13.6711C64.8095 14.1987 64.8627 14.7581 64.7929 15.3087C64.7929 18.0177 63.3288 19.5748 60.8031 19.5748H57.7402V11.0955H60.8031ZM59.0572 18.3757H60.6559C61.0516 18.3993 61.4475 18.3345 61.8149 18.1858C62.1823 18.0371 62.512 17.8084 62.7798 17.5163C63.0477 17.2242 63.247 16.876 63.3634 16.4971C63.4797 16.1182 63.5101 15.7181 63.4523 15.326C63.5059 14.9355 63.4724 14.5379 63.3543 14.1618C63.2362 13.7857 63.0364 13.4403 62.7691 13.1505C62.5018 12.8607 62.1738 12.6336 61.8085 12.4855C61.4431 12.3374 61.0496 12.2719 60.6559 12.2937H59.0572V18.3757Z" fill="white"/>
<path d="M66.2805 16.3725C66.2402 15.952 66.2883 15.5277 66.4217 15.1269C66.555 14.726 66.7707 14.3575 67.0548 14.0449C67.339 13.7322 67.6853 13.4825 68.0716 13.3115C68.458 13.1406 68.8757 13.0523 69.2982 13.0523C69.7206 13.0523 70.1384 13.1406 70.5247 13.3115C70.911 13.4825 71.2574 13.7322 71.5415 14.0449C71.8257 14.3575 72.0413 14.726 72.1747 15.1269C72.308 15.5277 72.3561 15.952 72.3159 16.3725C72.3569 16.7935 72.3094 17.2184 72.1764 17.6199C72.0434 18.0213 71.8278 18.3906 71.5436 18.7038C71.2594 19.017 70.9128 19.2673 70.5261 19.4386C70.1394 19.6099 69.7211 19.6984 69.2982 19.6984C68.8752 19.6984 68.457 19.6099 68.0702 19.4386C67.6835 19.2673 67.3369 19.017 67.0527 18.7038C66.7685 18.3906 66.553 18.0213 66.42 17.6199C66.287 17.2184 66.2395 16.7935 66.2805 16.3725ZM71.0169 16.3725C71.0169 14.9854 70.3938 14.1743 69.3003 14.1743C68.2025 14.1743 67.585 14.9854 67.585 16.3725C67.585 17.7707 68.2026 18.5756 69.3003 18.5756C70.3938 18.5756 71.0169 17.7652 71.0169 16.3725Z" fill="white"/>
<path d="M80.339 19.5747H79.029L77.7064 14.8618H77.6065L76.2895 19.5747H74.9919L73.2281 13.1757H74.509L75.6553 18.0585H75.7497L77.0653 13.1757H78.2768L79.5924 18.0585H79.6923L80.8331 13.1757H82.096L80.339 19.5747Z" fill="white"/>
<path d="M83.5792 13.1757H84.7949V14.1923H84.8892C85.0493 13.8272 85.3193 13.5211 85.6616 13.3167C86.0039 13.1124 86.4015 13.0199 86.7988 13.0522C87.1102 13.0288 87.4228 13.0757 87.7136 13.1896C88.0043 13.3034 88.2657 13.4812 88.4784 13.7097C88.6911 13.9383 88.8497 14.2118 88.9424 14.51C89.035 14.8082 89.0594 15.1234 89.0137 15.4322V19.5747H87.7508V15.7494C87.7508 14.721 87.304 14.2096 86.37 14.2096C86.1586 14.1998 85.9476 14.2358 85.7514 14.3151C85.5552 14.3944 85.3785 14.5153 85.2333 14.6693C85.0882 14.8233 84.9781 15.0069 84.9106 15.2074C84.843 15.408 84.8196 15.6208 84.842 15.8312V19.5748H83.5792L83.5792 13.1757Z" fill="white"/>
<path d="M91.0262 10.6777H92.2891V19.5748H91.0262V10.6777Z" fill="white"/>
<path d="M94.0442 16.3726C94.004 15.9521 94.0521 15.5278 94.1855 15.1269C94.3189 14.7261 94.5346 14.3575 94.8188 14.0449C95.1029 13.7323 95.4493 13.4825 95.8357 13.3116C96.222 13.1406 96.6398 13.0523 97.0623 13.0523C97.4847 13.0523 97.9026 13.1406 98.2889 13.3116C98.6753 13.4825 99.0216 13.7323 99.3058 14.0449C99.5899 14.3575 99.8056 14.7261 99.939 15.1269C100.072 15.5278 100.121 15.9521 100.08 16.3726C100.121 16.7936 100.074 17.2185 99.9407 17.62C99.8076 18.0215 99.5921 18.3907 99.3078 18.7039C99.0236 19.0171 98.677 19.2674 98.2902 19.4387C97.9035 19.61 97.4852 19.6985 97.0623 19.6985C96.6393 19.6985 96.221 19.61 95.8343 19.4387C95.4476 19.2674 95.101 19.0171 94.8167 18.7039C94.5325 18.3907 94.3169 18.0215 94.1839 17.62C94.0508 17.2185 94.0033 16.7936 94.0442 16.3726ZM98.7807 16.3726C98.7807 14.9856 98.1576 14.1744 97.064 14.1744C95.9663 14.1744 95.3488 14.9856 95.3488 16.3727C95.3488 17.7709 95.9663 18.5758 97.064 18.5758C98.1576 18.5757 98.7807 17.7653 98.7807 16.3726Z" fill="white"/>
<path d="M101.41 17.7652C101.41 16.6134 102.268 15.9493 103.79 15.8549L105.524 15.755V15.2027C105.524 14.5268 105.077 14.1452 104.214 14.1452C103.509 14.1452 103.02 14.404 102.88 14.8564H101.657C101.786 13.7573 102.82 13.0523 104.272 13.0523C105.876 13.0523 106.781 13.851 106.781 15.2027V19.5749H105.565V18.6756H105.465C105.263 18.9982 104.978 19.2612 104.64 19.4377C104.302 19.6142 103.924 19.6979 103.543 19.6803C103.275 19.7083 103.003 19.6796 102.746 19.5962C102.489 19.5128 102.253 19.3764 102.052 19.196C101.851 19.0156 101.69 18.795 101.579 18.5486C101.469 18.3022 101.411 18.0353 101.41 17.7652ZM105.524 17.2184V16.6834L103.961 16.7834C103.08 16.8423 102.68 17.1421 102.68 17.7062C102.68 18.2822 103.18 18.6173 103.867 18.6173C104.068 18.6377 104.271 18.6174 104.465 18.5575C104.658 18.4977 104.837 18.3996 104.992 18.2691C105.146 18.1386 105.273 17.9783 105.364 17.7978C105.456 17.6173 105.51 17.4203 105.524 17.2184Z" fill="white"/>
<path d="M108.44 16.3725C108.44 14.3505 109.48 13.0696 111.097 13.0696C111.497 13.0512 111.894 13.1469 112.241 13.3458C112.588 13.5446 112.872 13.8382 113.059 14.1922H113.153V10.6777H114.416V19.5748H113.206V18.5638H113.106C112.905 18.9155 112.611 19.2054 112.257 19.4022C111.903 19.599 111.502 19.6952 111.097 19.6802C109.469 19.6803 108.44 18.3994 108.44 16.3725ZM109.745 16.3725C109.745 17.7298 110.385 18.5465 111.455 18.5465C112.519 18.5465 113.177 17.718 113.177 16.3781C113.177 15.0444 112.512 14.2041 111.455 14.2041C110.392 14.2041 109.745 15.0264 109.745 16.3725Z" fill="white"/>
<path d="M119.641 16.3725C119.601 15.952 119.649 15.5277 119.782 15.1269C119.916 14.726 120.131 14.3575 120.415 14.0449C120.7 13.7322 121.046 13.4825 121.432 13.3115C121.819 13.1406 122.236 13.0523 122.659 13.0523C123.081 13.0523 123.499 13.1406 123.885 13.3115C124.272 13.4825 124.618 13.7322 124.902 14.0449C125.186 14.3575 125.402 14.726 125.535 15.1269C125.669 15.5277 125.717 15.952 125.677 16.3725C125.718 16.7935 125.67 17.2184 125.537 17.6199C125.404 18.0213 125.188 18.3906 124.904 18.7038C124.62 19.017 124.273 19.2673 123.887 19.4386C123.5 19.6099 123.082 19.6984 122.659 19.6984C122.236 19.6984 121.818 19.6099 121.431 19.4386C121.044 19.2673 120.698 19.017 120.413 18.7038C120.129 18.3906 119.914 18.0213 119.781 17.6199C119.648 17.2184 119.6 16.7935 119.641 16.3725ZM124.378 16.3725C124.378 14.9854 123.754 14.1743 122.661 14.1743C121.563 14.1743 120.946 14.9854 120.946 16.3725C120.946 17.7707 121.563 18.5756 122.661 18.5756C123.754 18.5756 124.378 17.7652 124.378 16.3725Z" fill="white"/>
<path d="M127.371 13.1757H128.587V14.1923H128.682C128.842 13.8272 129.112 13.5211 129.454 13.3167C129.796 13.1124 130.194 13.0199 130.591 13.0522C130.903 13.0288 131.215 13.0757 131.506 13.1896C131.797 13.3034 132.058 13.4812 132.271 13.7097C132.483 13.9383 132.642 14.2118 132.735 14.51C132.827 14.8082 132.852 15.1234 132.806 15.4322V19.5747H131.543V15.7494C131.543 14.721 131.096 14.2096 130.162 14.2096C129.951 14.1998 129.74 14.2358 129.544 14.3151C129.348 14.3944 129.171 14.5153 129.026 14.6693C128.881 14.8233 128.77 15.0069 128.703 15.2074C128.635 15.408 128.612 15.6208 128.634 15.8312V19.5748H127.371V13.1757Z" fill="white"/>
<path d="M139.942 11.5826V13.2049H141.328V14.2686H139.942V17.5591C139.942 18.2294 140.218 18.5229 140.847 18.5229C141.008 18.5224 141.169 18.5126 141.328 18.4937V19.5457C141.102 19.5862 140.872 19.6078 140.641 19.6102C139.237 19.6102 138.678 19.1161 138.678 17.8824V14.2686H137.662V13.2049H138.678V11.5826H139.942Z" fill="white"/>
<path d="M143.053 10.6777H144.305V14.2041H144.405C144.573 13.8356 144.85 13.5278 145.199 13.3226C145.548 13.1175 145.952 13.025 146.356 13.0578C146.666 13.0409 146.975 13.0926 147.263 13.2092C147.55 13.3258 147.808 13.5044 148.019 13.7323C148.229 13.9601 148.387 14.2316 148.48 14.5274C148.574 14.8232 148.601 15.1359 148.56 15.4434V19.5748H147.296V15.7549C147.296 14.7328 146.82 14.2152 145.927 14.2152C145.71 14.1974 145.492 14.2272 145.288 14.3026C145.083 14.378 144.898 14.4971 144.744 14.6516C144.591 14.8062 144.473 14.9924 144.399 15.1972C144.325 15.402 144.297 15.6206 144.316 15.8375V19.5748H143.053L143.053 10.6777Z" fill="white"/>
<path d="M155.924 17.8472C155.752 18.432 155.38 18.9379 154.873 19.2764C154.367 19.6148 153.757 19.7642 153.151 19.6985C152.729 19.7096 152.31 19.6289 151.923 19.4619C151.536 19.2948 151.19 19.0456 150.908 18.7313C150.627 18.417 150.418 18.0454 150.294 17.642C150.171 17.2387 150.137 16.8134 150.195 16.3956C150.139 15.9765 150.173 15.5503 150.296 15.1458C150.419 14.7412 150.628 14.3678 150.907 14.0508C151.187 13.7338 151.532 13.4806 151.918 13.3084C152.304 13.1361 152.723 13.0488 153.145 13.0524C154.926 13.0524 156 14.2689 156 16.2783V16.719H151.481V16.7897C151.462 17.0246 151.491 17.2609 151.568 17.4837C151.645 17.7064 151.768 17.9107 151.928 18.0833C152.088 18.2559 152.283 18.393 152.5 18.486C152.716 18.5789 152.95 18.6256 153.186 18.6229C153.488 18.6592 153.794 18.6048 154.065 18.4667C154.336 18.3285 154.56 18.1129 154.708 17.8472L155.924 17.8472ZM151.481 15.785H154.713C154.729 15.5702 154.7 15.3545 154.628 15.1517C154.555 14.9489 154.441 14.7634 154.293 14.6073C154.145 14.4512 153.965 14.3278 153.766 14.2452C153.568 14.1625 153.354 14.1223 153.138 14.1273C152.92 14.1245 152.703 14.1655 152.501 14.2479C152.299 14.3302 152.115 14.4522 151.96 14.6067C151.806 14.7612 151.684 14.9451 151.602 15.1474C151.519 15.3498 151.479 15.5666 151.481 15.785Z" fill="white"/>
<path d="M60.8031 11.0955C61.3567 11.0557 61.9123 11.1394 62.4298 11.3404C62.9472 11.5413 63.4136 11.8547 63.7953 12.2577C64.1769 12.6608 64.4644 13.1435 64.6369 13.6711C64.8095 14.1987 64.8627 14.7581 64.7929 15.3087C64.7929 18.0177 63.3288 19.5748 60.8031 19.5748H57.7402V11.0955H60.8031ZM59.0572 18.3757H60.6559C61.0516 18.3993 61.4475 18.3345 61.8149 18.1858C62.1823 18.0371 62.512 17.8084 62.7798 17.5163C63.0477 17.2242 63.247 16.876 63.3634 16.4971C63.4797 16.1182 63.5101 15.7181 63.4523 15.326C63.5059 14.9355 63.4724 14.5379 63.3543 14.1618C63.2362 13.7857 63.0364 13.4403 62.7691 13.1505C62.5018 12.8607 62.1738 12.6336 61.8085 12.4855C61.4431 12.3374 61.0496 12.2719 60.6559 12.2937H59.0572V18.3757Z" stroke="black" stroke-width="0.14" mask="url(#path-5-inside-1)"/>
<path d="M66.2805 16.3725C66.2402 15.952 66.2883 15.5277 66.4217 15.1269C66.555 14.726 66.7707 14.3575 67.0548 14.0449C67.339 13.7322 67.6853 13.4825 68.0716 13.3115C68.458 13.1406 68.8757 13.0523 69.2982 13.0523C69.7206 13.0523 70.1384 13.1406 70.5247 13.3115C70.911 13.4825 71.2574 13.7322 71.5415 14.0449C71.8257 14.3575 72.0413 14.726 72.1747 15.1269C72.308 15.5277 72.3561 15.952 72.3159 16.3725C72.3569 16.7935 72.3094 17.2184 72.1764 17.6199C72.0434 18.0213 71.8278 18.3906 71.5436 18.7038C71.2594 19.017 70.9128 19.2673 70.5261 19.4386C70.1394 19.6099 69.7211 19.6984 69.2982 19.6984C68.8752 19.6984 68.457 19.6099 68.0702 19.4386C67.6835 19.2673 67.3369 19.017 67.0527 18.7038C66.7685 18.3906 66.553 18.0213 66.42 17.6199C66.287 17.2184 66.2395 16.7935 66.2805 16.3725ZM71.0169 16.3725C71.0169 14.9854 70.3938 14.1743 69.3003 14.1743C68.2025 14.1743 67.585 14.9854 67.585 16.3725C67.585 17.7707 68.2026 18.5756 69.3003 18.5756C70.3938 18.5756 71.0169 17.7652 71.0169 16.3725Z" stroke="black" stroke-width="0.14" mask="url(#path-5-inside-1)"/>
<path d="M80.339 19.5747H79.029L77.7064 14.8618H77.6065L76.2895 19.5747H74.9919L73.2281 13.1757H74.509L75.6553 18.0585H75.7497L77.0653 13.1757H78.2768L79.5924 18.0585H79.6923L80.8331 13.1757H82.096L80.339 19.5747Z" stroke="black" stroke-width="0.14" mask="url(#path-5-inside-1)"/>
<path d="M83.5792 13.1757H84.7949V14.1923H84.8892C85.0493 13.8272 85.3193 13.5211 85.6616 13.3167C86.0039 13.1124 86.4015 13.0199 86.7988 13.0522C87.1102 13.0288 87.4228 13.0757 87.7136 13.1896C88.0043 13.3034 88.2657 13.4812 88.4784 13.7097C88.6911 13.9383 88.8497 14.2118 88.9424 14.51C89.035 14.8082 89.0594 15.1234 89.0137 15.4322V19.5747H87.7508V15.7494C87.7508 14.721 87.304 14.2096 86.37 14.2096C86.1586 14.1998 85.9476 14.2358 85.7514 14.3151C85.5552 14.3944 85.3785 14.5153 85.2333 14.6693C85.0882 14.8233 84.9781 15.0069 84.9106 15.2074C84.843 15.408 84.8196 15.6208 84.842 15.8312V19.5748H83.5792L83.5792 13.1757Z" stroke="black" stroke-width="0.14" mask="url(#path-5-inside-1)"/>
<path d="M91.0262 10.6777H92.2891V19.5748H91.0262V10.6777Z" stroke="black" stroke-width="0.14" mask="url(#path-5-inside-1)"/>
<path d="M94.0442 16.3726C94.004 15.9521 94.0521 15.5278 94.1855 15.1269C94.3189 14.7261 94.5346 14.3575 94.8188 14.0449C95.1029 13.7323 95.4493 13.4825 95.8357 13.3116C96.222 13.1406 96.6398 13.0523 97.0623 13.0523C97.4847 13.0523 97.9026 13.1406 98.2889 13.3116C98.6753 13.4825 99.0216 13.7323 99.3058 14.0449C99.5899 14.3575 99.8056 14.7261 99.939 15.1269C100.072 15.5278 100.121 15.9521 100.08 16.3726C100.121 16.7936 100.074 17.2185 99.9407 17.62C99.8076 18.0215 99.5921 18.3907 99.3078 18.7039C99.0236 19.0171 98.677 19.2674 98.2902 19.4387C97.9035 19.61 97.4852 19.6985 97.0623 19.6985C96.6393 19.6985 96.221 19.61 95.8343 19.4387C95.4476 19.2674 95.101 19.0171 94.8167 18.7039C94.5325 18.3907 94.3169 18.0215 94.1839 17.62C94.0508 17.2185 94.0033 16.7936 94.0442 16.3726ZM98.7807 16.3726C98.7807 14.9856 98.1576 14.1744 97.064 14.1744C95.9663 14.1744 95.3488 14.9856 95.3488 16.3727C95.3488 17.7709 95.9663 18.5758 97.064 18.5758C98.1576 18.5757 98.7807 17.7653 98.7807 16.3726Z" stroke="black" stroke-width="0.14" mask="url(#path-5-inside-1)"/>
<path d="M101.41 17.7652C101.41 16.6134 102.268 15.9493 103.79 15.8549L105.524 15.755V15.2027C105.524 14.5268 105.077 14.1452 104.214 14.1452C103.509 14.1452 103.02 14.404 102.88 14.8564H101.657C101.786 13.7573 102.82 13.0523 104.272 13.0523C105.876 13.0523 106.781 13.851 106.781 15.2027V19.5749H105.565V18.6756H105.465C105.263 18.9982 104.978 19.2612 104.64 19.4377C104.302 19.6142 103.924 19.6979 103.543 19.6803C103.275 19.7083 103.003 19.6796 102.746 19.5962C102.489 19.5128 102.253 19.3764 102.052 19.196C101.851 19.0156 101.69 18.795 101.579 18.5486C101.469 18.3022 101.411 18.0353 101.41 17.7652ZM105.524 17.2184V16.6834L103.961 16.7834C103.08 16.8423 102.68 17.1421 102.68 17.7062C102.68 18.2822 103.18 18.6173 103.867 18.6173C104.068 18.6377 104.271 18.6174 104.465 18.5575C104.658 18.4977 104.837 18.3996 104.992 18.2691C105.146 18.1386 105.273 17.9783 105.364 17.7978C105.456 17.6173 105.51 17.4203 105.524 17.2184Z" stroke="black" stroke-width="0.14" mask="url(#path-5-inside-1)"/>
<path d="M108.44 16.3725C108.44 14.3505 109.48 13.0696 111.097 13.0696C111.497 13.0512 111.894 13.1469 112.241 13.3458C112.588 13.5446 112.872 13.8382 113.059 14.1922H113.153V10.6777H114.416V19.5748H113.206V18.5638H113.106C112.905 18.9155 112.611 19.2054 112.257 19.4022C111.903 19.599 111.502 19.6952 111.097 19.6802C109.469 19.6803 108.44 18.3994 108.44 16.3725ZM109.745 16.3725C109.745 17.7298 110.385 18.5465 111.455 18.5465C112.519 18.5465 113.177 17.718 113.177 16.3781C113.177 15.0444 112.512 14.2041 111.455 14.2041C110.392 14.2041 109.745 15.0264 109.745 16.3725Z" stroke="black" stroke-width="0.14" mask="url(#path-5-inside-1)"/>
<path d="M119.641 16.3725C119.601 15.952 119.649 15.5277 119.782 15.1269C119.916 14.726 120.131 14.3575 120.415 14.0449C120.7 13.7322 121.046 13.4825 121.432 13.3115C121.819 13.1406 122.236 13.0523 122.659 13.0523C123.081 13.0523 123.499 13.1406 123.885 13.3115C124.272 13.4825 124.618 13.7322 124.902 14.0449C125.186 14.3575 125.402 14.726 125.535 15.1269C125.669 15.5277 125.717 15.952 125.677 16.3725C125.718 16.7935 125.67 17.2184 125.537 17.6199C125.404 18.0213 125.188 18.3906 124.904 18.7038C124.62 19.017 124.273 19.2673 123.887 19.4386C123.5 19.6099 123.082 19.6984 122.659 19.6984C122.236 19.6984 121.818 19.6099 121.431 19.4386C121.044 19.2673 120.698 19.017 120.413 18.7038C120.129 18.3906 119.914 18.0213 119.781 17.6199C119.648 17.2184 119.6 16.7935 119.641 16.3725ZM124.378 16.3725C124.378 14.9854 123.754 14.1743 122.661 14.1743C121.563 14.1743 120.946 14.9854 120.946 16.3725C120.946 17.7707 121.563 18.5756 122.661 18.5756C123.754 18.5756 124.378 17.7652 124.378 16.3725Z" stroke="black" stroke-width="0.14" mask="url(#path-5-inside-1)"/>
<path d="M127.371 13.1757H128.587V14.1923H128.682C128.842 13.8272 129.112 13.5211 129.454 13.3167C129.796 13.1124 130.194 13.0199 130.591 13.0522C130.903 13.0288 131.215 13.0757 131.506 13.1896C131.797 13.3034 132.058 13.4812 132.271 13.7097C132.483 13.9383 132.642 14.2118 132.735 14.51C132.827 14.8082 132.852 15.1234 132.806 15.4322V19.5747H131.543V15.7494C131.543 14.721 131.096 14.2096 130.162 14.2096C129.951 14.1998 129.74 14.2358 129.544 14.3151C129.348 14.3944 129.171 14.5153 129.026 14.6693C128.881 14.8233 128.77 15.0069 128.703 15.2074C128.635 15.408 128.612 15.6208 128.634 15.8312V19.5748H127.371V13.1757Z" stroke="black" stroke-width="0.14" mask="url(#path-5-inside-1)"/>
<path d="M139.942 11.5826V13.2049H141.328V14.2686H139.942V17.5591C139.942 18.2294 140.218 18.5229 140.847 18.5229C141.008 18.5224 141.169 18.5126 141.328 18.4937V19.5457C141.102 19.5862 140.872 19.6078 140.641 19.6102C139.237 19.6102 138.678 19.1161 138.678 17.8824V14.2686H137.662V13.2049H138.678V11.5826H139.942Z" stroke="black" stroke-width="0.14" mask="url(#path-5-inside-1)"/>
<path d="M143.053 10.6777H144.305V14.2041H144.405C144.573 13.8356 144.85 13.5278 145.199 13.3226C145.548 13.1175 145.952 13.025 146.356 13.0578C146.666 13.0409 146.975 13.0926 147.263 13.2092C147.55 13.3258 147.808 13.5044 148.019 13.7323C148.229 13.9601 148.387 14.2316 148.48 14.5274C148.574 14.8232 148.601 15.1359 148.56 15.4434V19.5748H147.296V15.7549C147.296 14.7328 146.82 14.2152 145.927 14.2152C145.71 14.1974 145.492 14.2272 145.288 14.3026C145.083 14.378 144.898 14.4971 144.744 14.6516C144.591 14.8062 144.473 14.9924 144.399 15.1972C144.325 15.402 144.297 15.6206 144.316 15.8375V19.5748H143.053L143.053 10.6777Z" stroke="black" stroke-width="0.14" mask="url(#path-5-inside-1)"/>
<path d="M155.924 17.8472C155.752 18.432 155.38 18.9379 154.873 19.2764C154.367 19.6148 153.757 19.7642 153.151 19.6985C152.729 19.7096 152.31 19.6289 151.923 19.4619C151.536 19.2948 151.19 19.0456 150.908 18.7313C150.627 18.417 150.418 18.0454 150.294 17.642C150.171 17.2387 150.137 16.8134 150.195 16.3956C150.139 15.9765 150.173 15.5503 150.296 15.1458C150.419 14.7412 150.628 14.3678 150.907 14.0508C151.187 13.7338 151.532 13.4806 151.918 13.3084C152.304 13.1361 152.723 13.0488 153.145 13.0524C154.926 13.0524 156 14.2689 156 16.2783V16.719H151.481V16.7897C151.462 17.0246 151.491 17.2609 151.568 17.4837C151.645 17.7064 151.768 17.9107 151.928 18.0833C152.088 18.2559 152.283 18.393 152.5 18.486C152.716 18.5789 152.95 18.6256 153.186 18.6229C153.488 18.6592 153.794 18.6048 154.065 18.4667C154.336 18.3285 154.56 18.1129 154.708 17.8472L155.924 17.8472ZM151.481 15.785H154.713C154.729 15.5702 154.7 15.3545 154.628 15.1517C154.555 14.9489 154.441 14.7634 154.293 14.6073C154.145 14.4512 153.965 14.3278 153.766 14.2452C153.568 14.1625 153.354 14.1223 153.138 14.1273C152.92 14.1245 152.703 14.1655 152.501 14.2479C152.299 14.3302 152.115 14.4522 151.96 14.6067C151.806 14.7612 151.684 14.9451 151.602 15.1474C151.519 15.3498 151.479 15.5666 151.481 15.785Z" stroke="black" stroke-width="0.14" mask="url(#path-5-inside-1)"/>
</svg>
