<svg width="189" height="58" viewBox="0 0 189 58" fill="none" xmlns="http://www.w3.org/2000/svg">
<path d="M182 58H7C3.08 58 0 54.81 0 50.75V7.25C0 3.19 3.08 0 7 0H182C185.92 0 189 3.19 189 7.25V50.75C189 54.665 185.92 58 182 58Z" fill="#F7F7F7"/>
<path d="M64.3609 15.2802C64.3609 16.4002 64.0809 17.3802 63.3809 18.0802C62.5409 18.9202 61.5609 19.3402 60.3009 19.3402C59.0409 19.3402 58.0609 18.9202 57.2209 18.0802C56.3809 17.2402 55.9609 16.2602 55.9609 15.0002C55.9609 13.7402 56.3809 12.7602 57.2209 11.9202C58.0609 11.0802 59.0409 10.6602 60.3009 10.6602C60.8609 10.6602 61.4209 10.8002 61.9809 11.0802C62.5409 11.3602 62.9609 11.6402 63.2409 12.0602L62.5409 12.7602C61.9809 12.0602 61.2809 11.7802 60.3009 11.7802C59.4609 11.7802 58.6209 12.0602 58.0609 12.7602C57.3609 13.3202 57.0809 14.1602 57.0809 15.1402C57.0809 16.1202 57.3609 16.9602 58.0609 17.5202C58.7609 18.0802 59.4609 18.5002 60.3009 18.5002C61.2809 18.5002 61.9809 18.2202 62.6809 17.5202C63.1009 17.1002 63.3809 16.5402 63.3809 15.8402H60.3009V14.8602H64.3609C64.3609 14.8602 64.3609 15.1402 64.3609 15.2802Z" fill="#171819"/>
<path d="M70.8004 11.7798H67.0204V14.4398H70.5204V15.4198H67.0204V18.0798H70.8004V19.1998H65.9004V10.7998H70.8004V11.7798Z" fill="#171819"/>
<path d="M75.4199 19.1998H74.2999V11.7798H71.9199V10.7998H77.7999V11.7798H75.4199V19.1998Z" fill="#171819"/>
<path d="M81.8613 19.1998V10.7998H82.9813V19.1998H81.8613Z" fill="#171819"/>
<path d="M87.7402 19.1998H86.6202V11.7798H84.2402V10.7998H89.9802V11.7798H87.6002V19.1998H87.7402Z" fill="#171819"/>
<path d="M101.041 18.0802C100.201 18.9202 99.2211 19.3402 97.9611 19.3402C96.7011 19.3402 95.7211 18.9202 94.8811 18.0802C94.0411 17.2402 93.6211 16.2602 93.6211 15.0002C93.6211 13.7402 94.0411 12.7602 94.8811 11.9202C95.7211 11.0802 96.7011 10.6602 97.9611 10.6602C99.2211 10.6602 100.201 11.0802 101.041 11.9202C101.881 12.7602 102.301 13.7402 102.301 15.0002C102.301 16.2602 101.881 17.2402 101.041 18.0802ZM95.7211 17.3802C96.2811 17.9402 97.1211 18.3602 97.9611 18.3602C98.8011 18.3602 99.6411 18.0802 100.201 17.3802C100.761 16.8202 101.181 15.9802 101.181 15.0002C101.181 14.0202 100.901 13.1802 100.201 12.6202C99.6411 12.0602 98.8011 11.6402 97.9611 11.6402C97.1211 11.6402 96.2811 11.9202 95.7211 12.6202C95.1611 13.1802 94.7411 14.0202 94.7411 15.0002C94.7411 15.9802 95.0211 16.8202 95.7211 17.3802Z" fill="#171819"/>
<path d="M103.84 19.1998V10.7998H105.1L109.16 17.3798V10.7998H110.28V19.1998H109.16L104.82 12.3398V19.1998H103.84Z" fill="#171819"/>
<path d="M64.3609 15.2802C64.3609 16.4002 64.0809 17.3802 63.3809 18.0802C62.5409 18.9202 61.5609 19.3402 60.3009 19.3402C59.0409 19.3402 58.0609 18.9202 57.2209 18.0802C56.3809 17.2402 55.9609 16.2602 55.9609 15.0002C55.9609 13.7402 56.3809 12.7602 57.2209 11.9202C58.0609 11.0802 59.0409 10.6602 60.3009 10.6602C60.8609 10.6602 61.4209 10.8002 61.9809 11.0802C62.5409 11.3602 62.9609 11.6402 63.2409 12.0602L62.5409 12.7602C61.9809 12.0602 61.2809 11.7802 60.3009 11.7802C59.4609 11.7802 58.6209 12.0602 58.0609 12.7602C57.3609 13.3202 57.0809 14.1602 57.0809 15.1402C57.0809 16.1202 57.3609 16.9602 58.0609 17.5202C58.7609 18.0802 59.4609 18.5002 60.3009 18.5002C61.2809 18.5002 61.9809 18.2202 62.6809 17.5202C63.1009 17.1002 63.3809 16.5402 63.3809 15.8402H60.3009V14.8602H64.3609C64.3609 14.8602 64.3609 15.1402 64.3609 15.2802Z" stroke="#171819" stroke-width="0.1" stroke-miterlimit="10"/>
<path d="M70.8004 11.7798H67.0204V14.4398H70.5204V15.4198H67.0204V18.0798H70.8004V19.1998H65.9004V10.7998H70.8004V11.7798Z" stroke="#171819" stroke-width="0.1" stroke-miterlimit="10"/>
<path d="M75.4199 19.1998H74.2999V11.7798H71.9199V10.7998H77.7999V11.7798H75.4199V19.1998Z" stroke="#171819" stroke-width="0.1" stroke-miterlimit="10"/>
<path d="M81.8613 19.1998V10.7998H82.9813V19.1998H81.8613Z" stroke="#171819" stroke-width="0.1" stroke-miterlimit="10"/>
<path d="M87.7402 19.1998H86.6202V11.7798H84.2402V10.7998H89.9802V11.7798H87.6002V19.1998H87.7402Z" stroke="#171819" stroke-width="0.1" stroke-miterlimit="10"/>
<path d="M101.041 18.0802C100.201 18.9202 99.2211 19.3402 97.9611 19.3402C96.7011 19.3402 95.7211 18.9202 94.8811 18.0802C94.0411 17.2402 93.6211 16.2602 93.6211 15.0002C93.6211 13.7402 94.0411 12.7602 94.8811 11.9202C95.7211 11.0802 96.7011 10.6602 97.9611 10.6602C99.2211 10.6602 100.201 11.0802 101.041 11.9202C101.881 12.7602 102.301 13.7402 102.301 15.0002C102.301 16.2602 101.881 17.2402 101.041 18.0802ZM95.7211 17.3802C96.2811 17.9402 97.1211 18.3602 97.9611 18.3602C98.8011 18.3602 99.6411 18.0802 100.201 17.3802C100.761 16.8202 101.181 15.9802 101.181 15.0002C101.181 14.0202 100.901 13.1802 100.201 12.6202C99.6411 12.0602 98.8011 11.6402 97.9611 11.6402C97.1211 11.6402 96.2811 11.9202 95.7211 12.6202C95.1611 13.1802 94.7411 14.0202 94.7411 15.0002C94.7411 15.9802 95.0211 16.8202 95.7211 17.3802Z" stroke="#171819" stroke-width="0.1" stroke-miterlimit="10"/>
<path d="M103.84 19.1998V10.7998H105.1L109.16 17.3798V10.7998H110.28V19.1998H109.16L104.82 12.3398V19.1998H103.84Z" stroke="#171819" stroke-width="0.1" stroke-miterlimit="10"/>
<mask id="path-3-inside-1" fill="white">
<path d="M93.3391 32.5199C89.9791 32.5199 87.3191 35.0399 87.3191 38.5399C87.3191 41.8999 89.9791 44.5599 93.3391 44.5599C96.6991 44.5599 99.3591 42.0399 99.3591 38.5399C99.3591 34.8999 96.6991 32.5199 93.3391 32.5199ZM93.3391 42.0399C91.5191 42.0399 89.9791 40.4999 89.9791 38.3999C89.9791 36.2999 91.5191 34.7599 93.3391 34.7599C95.1591 34.7599 96.6991 36.1599 96.6991 38.3999C96.6991 40.4999 95.1591 42.0399 93.3391 42.0399ZM80.3191 32.5199C76.9591 32.5199 74.2991 35.0399 74.2991 38.5399C74.2991 41.8999 76.9591 44.5599 80.3191 44.5599C83.6791 44.5599 86.3391 42.0399 86.3391 38.5399C86.3391 34.8999 83.6791 32.5199 80.3191 32.5199ZM80.3191 42.0399C78.4991 42.0399 76.9591 40.4999 76.9591 38.3999C76.9591 36.2999 78.4991 34.7599 80.3191 34.7599C82.1391 34.7599 83.6791 36.1599 83.6791 38.3999C83.6791 40.4999 82.1391 42.0399 80.3191 42.0399ZM64.7791 34.3399V36.8599H70.7991C70.6591 38.2599 70.0991 39.3799 69.3991 40.0799C68.5591 40.9199 67.1591 41.8999 64.7791 41.8999C60.9991 41.8999 58.1991 38.9599 58.1991 35.1799C58.1991 31.3999 61.1391 28.4599 64.7791 28.4599C66.7391 28.4599 68.2791 29.2999 69.3991 30.2799L71.2191 28.4599C69.6791 27.0599 67.7191 25.9399 64.9191 25.9399C59.8791 25.9399 55.5391 30.1399 55.5391 35.1799C55.5391 40.2199 59.8791 44.4199 64.9191 44.4199C67.7191 44.4199 69.6791 43.5799 71.3591 41.7599C73.0391 40.0799 73.5991 37.6999 73.5991 35.8799C73.5991 35.3199 73.5991 34.7599 73.4591 34.3399H64.7791ZM128.339 36.2999C127.779 34.8999 126.379 32.5199 123.299 32.5199C120.219 32.5199 117.699 34.8999 117.699 38.5399C117.699 41.8999 120.219 44.5599 123.579 44.5599C126.239 44.5599 127.919 42.8799 128.479 41.8999L126.519 40.4999C125.819 41.4799 124.979 42.1799 123.579 42.1799C122.179 42.1799 121.339 41.6199 120.639 40.3599L128.619 36.9999L128.339 36.2999ZM120.219 38.2599C120.219 36.0199 122.039 34.7599 123.299 34.7599C124.279 34.7599 125.259 35.3199 125.539 36.0199L120.219 38.2599ZM113.639 43.9999H116.299V26.4999H113.639V43.9999ZM109.439 33.7799C108.739 33.0799 107.619 32.3799 106.219 32.3799C103.279 32.3799 100.479 35.0399 100.479 38.3999C100.479 41.7599 103.139 44.2799 106.219 44.2799C107.619 44.2799 108.739 43.5799 109.299 42.8799H109.439V43.7199C109.439 45.9599 108.179 47.2199 106.219 47.2199C104.679 47.2199 103.559 46.0999 103.279 45.1199L101.039 46.0999C101.739 47.6399 103.419 49.5999 106.359 49.5999C109.439 49.5999 111.959 47.7799 111.959 43.4399V32.7999H109.439V33.7799ZM106.359 42.0399C104.539 42.0399 102.999 40.4999 102.999 38.3999C102.999 36.2999 104.539 34.7599 106.359 34.7599C108.179 34.7599 109.579 36.2999 109.579 38.3999C109.579 40.4999 108.179 42.0399 106.359 42.0399ZM140.519 26.4999H134.219V43.9999H136.879V37.4199H140.519C143.459 37.4199 146.259 35.3199 146.259 31.9599C146.259 28.5999 143.459 26.4999 140.519 26.4999ZM140.659 34.8999H136.879V28.8799H140.659C142.619 28.8799 143.739 30.5599 143.739 31.8199C143.599 33.3599 142.479 34.8999 140.659 34.8999ZM156.759 32.3799C154.799 32.3799 152.839 33.2199 152.139 35.0399L154.519 36.0199C155.079 35.0399 155.919 34.7599 156.899 34.7599C158.299 34.7599 159.559 35.5999 159.699 36.9999V37.1399C159.279 36.8599 158.159 36.4399 157.039 36.4399C154.519 36.4399 151.999 37.8399 151.999 40.3599C151.999 42.7399 154.099 44.2799 156.339 44.2799C158.159 44.2799 158.999 43.4399 159.699 42.5999H159.839V43.9999H162.359V37.2799C162.079 34.1999 159.699 32.3799 156.759 32.3799ZM156.479 42.0399C155.639 42.0399 154.379 41.6199 154.379 40.4999C154.379 39.0999 155.919 38.6799 157.179 38.6799C158.299 38.6799 158.859 38.9599 159.559 39.2399C159.279 40.9199 157.879 42.0399 156.479 42.0399ZM171.179 32.7999L168.239 40.3599H168.099L165.019 32.7999H162.219L166.839 43.4399L164.179 49.3199H166.839L173.979 32.7999H171.179ZM147.659 43.9999H150.319V26.4999H147.659V43.9999Z"/>
</mask>
<path d="M93.3391 32.5199C89.9791 32.5199 87.3191 35.0399 87.3191 38.5399C87.3191 41.8999 89.9791 44.5599 93.3391 44.5599C96.6991 44.5599 99.3591 42.0399 99.3591 38.5399C99.3591 34.8999 96.6991 32.5199 93.3391 32.5199ZM93.3391 42.0399C91.5191 42.0399 89.9791 40.4999 89.9791 38.3999C89.9791 36.2999 91.5191 34.7599 93.3391 34.7599C95.1591 34.7599 96.6991 36.1599 96.6991 38.3999C96.6991 40.4999 95.1591 42.0399 93.3391 42.0399ZM80.3191 32.5199C76.9591 32.5199 74.2991 35.0399 74.2991 38.5399C74.2991 41.8999 76.9591 44.5599 80.3191 44.5599C83.6791 44.5599 86.3391 42.0399 86.3391 38.5399C86.3391 34.8999 83.6791 32.5199 80.3191 32.5199ZM80.3191 42.0399C78.4991 42.0399 76.9591 40.4999 76.9591 38.3999C76.9591 36.2999 78.4991 34.7599 80.3191 34.7599C82.1391 34.7599 83.6791 36.1599 83.6791 38.3999C83.6791 40.4999 82.1391 42.0399 80.3191 42.0399ZM64.7791 34.3399V36.8599H70.7991C70.6591 38.2599 70.0991 39.3799 69.3991 40.0799C68.5591 40.9199 67.1591 41.8999 64.7791 41.8999C60.9991 41.8999 58.1991 38.9599 58.1991 35.1799C58.1991 31.3999 61.1391 28.4599 64.7791 28.4599C66.7391 28.4599 68.2791 29.2999 69.3991 30.2799L71.2191 28.4599C69.6791 27.0599 67.7191 25.9399 64.9191 25.9399C59.8791 25.9399 55.5391 30.1399 55.5391 35.1799C55.5391 40.2199 59.8791 44.4199 64.9191 44.4199C67.7191 44.4199 69.6791 43.5799 71.3591 41.7599C73.0391 40.0799 73.5991 37.6999 73.5991 35.8799C73.5991 35.3199 73.5991 34.7599 73.4591 34.3399H64.7791ZM128.339 36.2999C127.779 34.8999 126.379 32.5199 123.299 32.5199C120.219 32.5199 117.699 34.8999 117.699 38.5399C117.699 41.8999 120.219 44.5599 123.579 44.5599C126.239 44.5599 127.919 42.8799 128.479 41.8999L126.519 40.4999C125.819 41.4799 124.979 42.1799 123.579 42.1799C122.179 42.1799 121.339 41.6199 120.639 40.3599L128.619 36.9999L128.339 36.2999ZM120.219 38.2599C120.219 36.0199 122.039 34.7599 123.299 34.7599C124.279 34.7599 125.259 35.3199 125.539 36.0199L120.219 38.2599ZM113.639 43.9999H116.299V26.4999H113.639V43.9999ZM109.439 33.7799C108.739 33.0799 107.619 32.3799 106.219 32.3799C103.279 32.3799 100.479 35.0399 100.479 38.3999C100.479 41.7599 103.139 44.2799 106.219 44.2799C107.619 44.2799 108.739 43.5799 109.299 42.8799H109.439V43.7199C109.439 45.9599 108.179 47.2199 106.219 47.2199C104.679 47.2199 103.559 46.0999 103.279 45.1199L101.039 46.0999C101.739 47.6399 103.419 49.5999 106.359 49.5999C109.439 49.5999 111.959 47.7799 111.959 43.4399V32.7999H109.439V33.7799ZM106.359 42.0399C104.539 42.0399 102.999 40.4999 102.999 38.3999C102.999 36.2999 104.539 34.7599 106.359 34.7599C108.179 34.7599 109.579 36.2999 109.579 38.3999C109.579 40.4999 108.179 42.0399 106.359 42.0399ZM140.519 26.4999H134.219V43.9999H136.879V37.4199H140.519C143.459 37.4199 146.259 35.3199 146.259 31.9599C146.259 28.5999 143.459 26.4999 140.519 26.4999ZM140.659 34.8999H136.879V28.8799H140.659C142.619 28.8799 143.739 30.5599 143.739 31.8199C143.599 33.3599 142.479 34.8999 140.659 34.8999ZM156.759 32.3799C154.799 32.3799 152.839 33.2199 152.139 35.0399L154.519 36.0199C155.079 35.0399 155.919 34.7599 156.899 34.7599C158.299 34.7599 159.559 35.5999 159.699 36.9999V37.1399C159.279 36.8599 158.159 36.4399 157.039 36.4399C154.519 36.4399 151.999 37.8399 151.999 40.3599C151.999 42.7399 154.099 44.2799 156.339 44.2799C158.159 44.2799 158.999 43.4399 159.699 42.5999H159.839V43.9999H162.359V37.2799C162.079 34.1999 159.699 32.3799 156.759 32.3799ZM156.479 42.0399C155.639 42.0399 154.379 41.6199 154.379 40.4999C154.379 39.0999 155.919 38.6799 157.179 38.6799C158.299 38.6799 158.859 38.9599 159.559 39.2399C159.279 40.9199 157.879 42.0399 156.479 42.0399ZM171.179 32.7999L168.239 40.3599H168.099L165.019 32.7999H162.219L166.839 43.4399L164.179 49.3199H166.839L173.979 32.7999H171.179ZM147.659 43.9999H150.319V26.4999H147.659V43.9999Z" fill="#171819" stroke="#171819" stroke-width="0.2" mask="url(#path-3-inside-1)"/>
<path d="M17.4686 14.378C17.1274 14.7192 16.8999 15.2878 16.8999 15.9702V41.1047C16.8999 41.787 17.1274 42.3557 17.4686 42.6969L17.5823 42.8106L31.6849 28.708V28.5943V28.4806L17.4686 14.378Z" fill="url(#paint0_linear)"/>
<path d="M36.3468 33.4846L31.6838 28.8216V28.5942V28.4805L36.3468 23.8175L36.4605 23.9312L42.0333 27.1157C43.6255 28.0255 43.6255 29.504 42.0333 30.4139L36.3468 33.4846Z" fill="url(#paint1_linear)"/>
<path d="M36.4613 33.3707L31.6846 28.594L17.4683 42.8103C18.0369 43.379 18.833 43.379 19.8566 42.924L36.4613 33.3707Z" fill="url(#paint2_linear)"/>
<path d="M36.4613 23.8172L19.8566 14.3775C18.833 13.8089 18.0369 13.9226 17.4683 14.4913L31.6846 28.5938L36.4613 23.8172Z" fill="url(#paint3_linear)"/>
<path opacity="0.2" d="M36.3495 33.2567L19.8586 42.5826C18.9487 43.1512 18.1526 43.0375 17.5839 42.5826L17.4702 42.6963L17.5839 42.81C18.1526 43.2649 18.9487 43.3787 19.8586 42.81L36.3495 33.2567Z" fill="black"/>
<path opacity="0.12" d="M17.4698 42.5828C17.1286 42.2416 17.0149 41.6729 17.0149 40.9905V41.1043C17.0149 41.7867 17.2424 42.3553 17.5835 42.6965V42.5828H17.4698Z" fill="black"/>
<path opacity="0.12" d="M42.0339 30.0725L36.3474 33.2569L36.4611 33.3707L42.0339 30.1862C42.83 29.7313 43.1712 29.1626 43.1712 28.594C43.1712 29.1626 42.7163 29.6176 42.0339 30.0725Z" fill="black"/>
<path opacity="0.25" d="M19.8564 14.4918L42.0339 27.1159C42.7163 27.5708 43.1712 28.0257 43.1712 28.5944C43.1712 28.0257 42.83 27.457 42.0339 27.0021L19.8564 14.378C18.2642 13.4682 17.0132 14.2643 17.0132 16.084V16.1977C17.0132 14.378 18.2642 13.5819 19.8564 14.4918Z" fill="white"/>
<defs>
<linearGradient id="paint0_linear" x1="30.4335" y1="15.7538" x2="11.3468" y2="34.8405" gradientUnits="userSpaceOnUse">
<stop stop-color="#00A0FF"/>
<stop offset="0.00657445" stop-color="#00A1FF"/>
<stop offset="0.2601" stop-color="#00BEFF"/>
<stop offset="0.5122" stop-color="#00D2FF"/>
<stop offset="0.7604" stop-color="#00DFFF"/>
<stop offset="1" stop-color="#00E3FF"/>
</linearGradient>
<linearGradient id="paint1_linear" x1="44.1196" y1="28.5958" x2="16.6003" y2="28.5958" gradientUnits="userSpaceOnUse">
<stop stop-color="#FFE000"/>
<stop offset="0.4087" stop-color="#FFBD00"/>
<stop offset="0.7754" stop-color="#FFA500"/>
<stop offset="1" stop-color="#FF9C00"/>
</linearGradient>
<linearGradient id="paint2_linear" x1="33.8762" y1="31.2054" x2="7.99303" y2="57.0885" gradientUnits="userSpaceOnUse">
<stop stop-color="#FF3A44"/>
<stop offset="1" stop-color="#C31162"/>
</linearGradient>
<linearGradient id="paint3_linear" x1="13.9395" y1="6.04813" x2="25.4975" y2="17.606" gradientUnits="userSpaceOnUse">
<stop stop-color="#32A071"/>
<stop offset="0.0685" stop-color="#2DA771"/>
<stop offset="0.4762" stop-color="#15CF74"/>
<stop offset="0.8009" stop-color="#06E775"/>
<stop offset="1" stop-color="#00F076"/>
</linearGradient>
</defs>
</svg>
