<svg width="96" height="96" viewBox="0 0 96 96" fill="none" xmlns="http://www.w3.org/2000/svg">
<path d="M0 48C0 21.4903 21.4903 0 48 0C74.5097 0 96 21.4903 96 48C96 74.5097 74.5097 96 48 96C21.4903 96 0 74.5097 0 48Z" fill="white"/>
<path d="M0.5 48C0.5 21.7665 21.7665 0.5 48 0.5C74.2335 0.5 95.5 21.7665 95.5 48C95.5 74.2335 74.2335 95.5 48 95.5C21.7665 95.5 0.5 74.2335 0.5 48Z" stroke="url(#paint0_linear)" stroke-opacity="0.5"/>
<path d="M10 48C10 27.0132 27.0132 10 48 10C68.9868 10 86 27.0132 86 48C86 68.9868 68.9868 86 48 86C27.0132 86 10 68.9868 10 48Z" fill="white"/>
<path d="M10.5 48C10.5 27.2893 27.2893 10.5 48 10.5C68.7107 10.5 85.5 27.2893 85.5 48C85.5 68.7107 68.7107 85.5 48 85.5C27.2893 85.5 10.5 68.7107 10.5 48Z" stroke="url(#paint1_linear)" stroke-opacity="0.5"/>
<path d="M20 48C20 32.536 32.536 20 48 20C63.464 20 76 32.536 76 48C76 63.464 63.464 76 48 76C32.536 76 20 63.464 20 48Z" fill="#FF284C"/>
<path d="M48.0782 59.1206C48.0318 59.1578 47.9712 59.1578 47.9247 59.1206C47.2644 58.5921 42.5043 54.7727 40.0371 52.5455C37.3823 50.149 34.0142 43.9093 39.4682 39.8256C42.2917 37.6298 47.3569 39.2482 47.9881 42.5174C47.9909 42.5314 48.0122 42.5314 48.0149 42.5174C48.6461 39.2482 53.7113 37.6299 56.5347 39.8256C61.9884 43.9093 58.6206 50.149 55.9659 52.5455C53.4987 54.7727 48.7385 58.5921 48.0782 59.1206Z" fill="#F7F7F7" stroke="#F7F7F7" stroke-width="1.98351"/>
<defs>
<linearGradient id="paint0_linear" x1="48" y1="0" x2="48" y2="96" gradientUnits="userSpaceOnUse">
<stop stop-color="#FF284C"/>
<stop offset="1" stop-color="#FF284C" stop-opacity="0"/>
</linearGradient>
<linearGradient id="paint1_linear" x1="48" y1="10" x2="48" y2="86" gradientUnits="userSpaceOnUse">
<stop stop-color="#FF284C"/>
<stop offset="1" stop-color="#FF284C" stop-opacity="0"/>
</linearGradient>
</defs>
</svg>
