<svg width="142" height="38" viewBox="0 0 142 38" fill="none" xmlns="http://www.w3.org/2000/svg">
<path fill-rule="evenodd" clip-rule="evenodd" d="M100.662 14.6498C101.727 13.5845 103.141 13.0588 104.542 13.0588C105.943 13.0588 107.357 13.5845 108.422 14.6498C109.497 15.7248 110.156 17.287 110.156 19.2457C110.156 21.2045 109.497 22.7666 108.422 23.8416C107.357 24.9069 105.943 25.4326 104.542 25.4326C103.141 25.4326 101.727 24.9069 100.662 23.8416C99.5871 22.7666 98.928 21.2045 98.928 19.2457C98.928 17.287 99.5871 15.7248 100.662 14.6498ZM102.12 16.108C101.477 16.7516 100.99 17.7673 100.99 19.2457C100.99 20.7241 101.477 21.7398 102.12 22.3834C102.774 23.0366 103.651 23.3703 104.542 23.3703C105.433 23.3703 106.31 23.0366 106.964 22.3834C107.607 21.7398 108.094 20.7241 108.094 19.2457C108.094 17.7673 107.607 16.7516 106.964 16.108C106.31 15.4548 105.433 15.1211 104.542 15.1211C103.651 15.1211 102.774 15.4548 102.12 16.108Z" fill="#171819"/>
<path fill-rule="evenodd" clip-rule="evenodd" d="M91.3608 13.0586C90.0808 13.0586 88.8133 13.4961 87.8091 14.2397V8.93408L85.7468 8.93427V24.974L87.0865 24.9739L87.8091 24.2512C88.8133 24.9948 90.0808 25.4323 91.3608 25.4323C92.7616 25.4323 94.1754 24.9067 95.2407 23.8414C96.3157 22.7664 96.9749 21.2042 96.9749 19.2455C96.9749 17.2867 96.3157 15.7246 95.2407 14.6495C94.1754 13.5842 92.7616 13.0586 91.3608 13.0586ZM87.8091 20.3912C87.8091 21.1723 88.197 21.9023 88.8702 22.4633C89.5488 23.0288 90.4623 23.3701 91.3608 23.3701C92.2515 23.3701 93.1292 23.0364 93.7824 22.3831C94.426 21.7396 94.9126 20.7239 94.9126 19.2455C94.9126 17.7671 94.426 16.7514 93.7824 16.1078C93.1292 15.4545 92.2515 15.1209 91.3608 15.1209C90.4623 15.1209 89.5488 15.4621 88.8702 16.0276C88.197 16.5886 87.8091 17.3186 87.8091 18.0998V20.3912Z" fill="#171819"/>
<path fill-rule="evenodd" clip-rule="evenodd" d="M117.718 13.0586C118.998 13.0586 120.265 13.4961 121.269 14.2397V8.93408L123.332 8.93427V24.974L121.992 24.9739L121.269 24.2512C120.265 24.9948 118.998 25.4323 117.718 25.4323C116.317 25.4323 114.903 24.9067 113.838 23.8414C112.763 22.7664 112.104 21.2042 112.104 19.2455C112.104 17.2867 112.763 15.7246 113.838 14.6495C114.903 13.5842 116.317 13.0586 117.718 13.0586ZM121.269 20.3912C121.269 21.1723 120.881 21.9023 120.208 22.4633C119.53 23.0288 118.616 23.3701 117.718 23.3701C116.827 23.3701 115.949 23.0364 115.296 22.3831C114.652 21.7396 114.166 20.7239 114.166 19.2455C114.166 17.7671 114.652 16.7514 115.296 16.1078C115.949 15.4545 116.827 15.1209 117.718 15.1209C118.616 15.1209 119.53 15.4621 120.208 16.0276C120.881 16.5886 121.269 17.3186 121.269 18.0998V20.3912Z" fill="#171819"/>
<path d="M44.4471 18.1C44.4471 16.9815 44.8757 16.2891 45.4667 15.8458C46.0983 15.3722 47.0055 15.1211 47.9988 15.1211C48.8894 15.1211 49.7671 15.4548 50.4204 16.108C51.0639 16.7516 51.5505 17.7673 51.5505 19.2457V24.9743H53.6128V19.2457C53.6128 17.287 52.9536 15.7248 51.8786 14.6498C50.8133 13.5845 49.3996 13.0588 47.9988 13.0588C46.7858 13.0588 45.4977 13.3398 44.4471 14.0418L43.9224 13.5171H42.3848V24.9743L44.4471 24.9742V18.1Z" fill="#171819"/>
<path d="M69.7427 13.5164C69.7427 17.069 70.3349 19.8925 70.934 21.8396C71.2335 22.8131 71.5348 23.5677 71.7649 24.0855C71.88 24.3444 71.9774 24.5442 72.0479 24.6827L72.1696 24.9116L72.205 24.9735H73.9241L73.95 24.9303L75.0237 23.1396L76.5024 20.674L77.9811 23.1396L79.0551 24.9308L79.0807 24.9735H80.7998L80.8348 24.9123L80.9569 24.6827C81.0274 24.5442 81.1248 24.3444 81.2399 24.0855C81.47 23.5677 81.7713 22.8131 82.0708 21.8396C82.6699 19.8925 83.2621 17.069 83.2621 13.5164H81.1998C81.1998 16.8381 80.6463 19.4567 80.0997 21.2331C79.9961 21.57 79.8927 21.8765 79.7934 22.1517L79.7498 22.079C79.1053 21.0042 78.246 19.5714 77.3866 18.1391L77.3627 18.0992H75.6421L75.6182 18.1391C74.7589 19.5714 73.255 22.079 73.255 22.079L73.2114 22.1517C73.1121 21.8765 73.0087 21.57 72.9051 21.2331C72.3585 19.4567 71.805 16.8381 71.805 13.5164H69.7427Z" fill="#171819"/>
<path d="M32.1538 18.8674C32.1538 10.0617 25.0154 2.92334 16.2098 2.92334C15.3292 2.92334 14.6153 3.63718 14.6153 4.51775V19.1338C14.6153 27.9395 21.7537 35.0779 30.5594 35.0779C31.44 35.0779 32.1538 34.3641 32.1538 33.4835V18.8674Z" fill="url(#paint0_linear)"/>
<path d="M20.4614 18.8674C20.4614 10.0617 13.323 2.92334 4.51737 2.92334C3.6368 2.92334 2.92296 3.63718 2.92296 4.51775V19.1338C2.92296 27.9395 10.0614 35.0779 18.867 35.0779C19.7476 35.0779 20.4614 34.3641 20.4614 33.4835V18.8674Z" fill="url(#paint1_linear)"/>
<path d="M130.505 25.1993C127.763 23.1007 125.818 19.4202 125.818 13.5164H127.88C127.88 18.8883 129.604 21.9003 131.741 23.5478L131.765 23.51C132.123 22.9571 132.602 22.153 133.081 21.1598C134.045 19.1632 134.984 16.4569 134.984 13.5164H137.046C137.046 16.8773 135.98 19.8997 134.938 22.0564C134.415 23.1398 133.892 24.0185 133.497 24.6293C133.3 24.935 133.134 25.1744 133.016 25.3398C132.957 25.4225 132.909 25.4867 132.876 25.5315L132.767 25.6798C132.715 25.752 132.638 25.8535 132.539 25.9795C132.34 26.2314 132.047 26.582 131.663 26.992C130.956 27.7449 129.933 28.7049 128.603 29.6219L127.117 28.136C128.457 27.2574 129.476 26.3085 130.158 25.5811C130.286 25.4452 130.401 25.3173 130.505 25.1993Z" fill="#171819"/>
<path fill-rule="evenodd" clip-rule="evenodd" d="M61.8959 13.0732C60.3337 13.0732 58.8409 13.5751 57.7336 14.6552C56.619 15.7423 55.9966 17.3161 55.9966 19.2601C55.9966 19.4816 56.0046 19.6984 56.0206 19.9103C56.1528 21.6678 56.8308 23.0778 57.926 24.0435C59.0124 25.0015 60.4234 25.447 61.8959 25.447C64.0986 25.447 66.1415 24.4409 67.1536 22.329L65.0538 21.8611C64.3936 22.854 63.2771 23.3847 61.8959 23.3847C60.8336 23.3847 59.936 23.0663 59.29 22.4967C58.7334 22.0059 58.2981 21.2711 58.1319 20.2279L67.85 19.6549L67.7713 18.6099C67.6391 16.8525 66.9611 15.4425 65.8659 14.4767C64.7795 13.5187 63.3685 13.0732 61.8959 13.0732ZM58.1544 18.1607L65.5357 17.7255C65.3223 16.9762 64.9517 16.4202 64.5019 16.0235C63.8559 15.4539 62.9583 15.1355 61.8959 15.1355C60.7695 15.1355 59.8282 15.4929 59.1736 16.1315C58.7001 16.5933 58.3229 17.2546 58.1544 18.1607Z" fill="#171819"/>
<defs>
<linearGradient id="paint0_linear" x1="14.2646" y1="2.92334" x2="30.5629" y2="35.6947" gradientUnits="userSpaceOnUse">
<stop offset="0.239583" stop-color="#FF274B" stop-opacity="0.65"/>
<stop offset="1" stop-color="#FF274B"/>
</linearGradient>
<linearGradient id="paint1_linear" x1="2.57219" y1="2.92334" x2="18.8705" y2="35.6947" gradientUnits="userSpaceOnUse">
<stop stop-color="#FF274B" stop-opacity="0.82"/>
<stop offset="1" stop-color="#FF274B"/>
</linearGradient>
</defs>
</svg>
