<svg width="1201" height="241" viewBox="0 0 1201 241" fill="none" xmlns="http://www.w3.org/2000/svg">
<path opacity="0.1" d="M1200.71 124.707C1201.1 124.317 1201.1 123.683 1200.71 123.293L1194.34 116.929C1193.95 116.538 1193.32 116.538 1192.93 116.929C1192.54 117.319 1192.54 117.953 1192.93 118.343L1198.59 124L1192.93 129.657C1192.54 130.047 1192.54 130.681 1192.93 131.071C1193.32 131.462 1193.95 131.462 1194.34 131.071L1200.71 124.707ZM600 125H850V123H600V125ZM350 125H600V123H350V125ZM0 125H150V123H0V125ZM150 125H350V123H150V125ZM850 125H1050V123H850V125ZM1050 125H1200V123H1050V125Z" fill="url(#paint0_linear)"/>
<circle cx="172" cy="124" r="10" fill="#F7F7F7"/>
<circle cx="386" cy="124" r="10" fill="#F7F7F7"/>
<circle cx="600" cy="124" r="10" fill="#F7F7F7"/>
<circle cx="814" cy="124" r="10" fill="#F7F7F7"/>
<circle cx="1028" cy="124" r="10" fill="#F7F7F7"/>
<path opacity="0.3" d="M172.6 124C172.6 124.331 172.331 124.6 172 124.6C171.669 124.6 171.4 124.331 171.4 124H172.6ZM36.5757 0.575736C36.81 0.341421 37.19 0.341421 37.4243 0.575736L41.2426 4.39411C41.477 4.62843 41.477 5.00833 41.2426 5.24264C41.0083 5.47696 40.6284 5.47696 40.3941 5.24264L37 1.84853L33.6059 5.24264C33.3716 5.47696 32.9917 5.47696 32.7574 5.24264C32.523 5.00833 32.523 4.62843 32.7574 4.39411L36.5757 0.575736ZM171.4 124C171.4 122.256 171.349 120.565 171.249 118.926L172.447 118.852C172.548 120.517 172.6 122.232 172.6 124H171.4ZM169.963 109.127C169.243 105.689 168.265 102.523 167.058 99.5996L168.167 99.1417C169.404 102.137 170.403 105.374 171.137 108.881L169.963 109.127ZM162.364 90.9157C160.464 88.1499 158.304 85.6535 155.924 83.3856L156.752 82.5168C159.188 84.8385 161.403 87.3977 163.353 90.2362L162.364 90.9157ZM148.15 77.2187C145.425 75.4059 142.527 73.7728 139.49 72.2817L140.019 71.2046C143.095 72.7151 146.04 74.3736 148.815 76.2196L148.15 77.2187ZM130.32 68.3163C127.244 67.1382 124.081 66.0542 120.861 65.0323L121.224 63.8885C124.461 64.9158 127.647 66.0074 130.749 67.1957L130.32 68.3163ZM111.242 62.1714C108.025 61.2643 104.787 60.3869 101.554 59.5086L101.869 58.3506C105.1 59.2284 108.344 60.1074 111.567 61.0164L111.242 62.1714ZM91.8636 56.8306C88.5982 55.8996 85.37 54.9362 82.2121 53.9084L82.5835 52.7674C85.7229 53.7891 88.9361 54.7481 92.1926 55.6766L91.8636 56.8306ZM72.7238 50.4969C69.5319 49.2174 66.4563 47.8248 63.5377 46.2793L64.0992 45.2188C66.9737 46.7409 70.0099 48.1161 73.1703 49.3831L72.7238 50.4969ZM54.9519 40.8898C52.2191 38.8412 49.7146 36.5672 47.4896 34.0181L48.3937 33.229C50.5574 35.7079 52.9985 37.9257 55.6717 39.9296L54.9519 40.8898ZM41.7695 25.621C40.2776 22.7341 39.0676 19.5784 38.1766 16.1171L39.3387 15.8179C40.208 19.1949 41.3864 22.2659 42.8356 25.0701L41.7695 25.621ZM36.583 6.14185C36.4618 4.4855 36.4 2.7724 36.4 1H37.6C37.6 2.7445 37.6608 4.42837 37.7798 6.0543L36.583 6.14185Z" fill="#F7F7F7"/>
<path opacity="0.3" d="M386.6 124C386.6 123.669 386.331 123.4 386 123.4C385.669 123.4 385.4 123.669 385.4 124H386.6ZM262.376 239.924C262.611 240.159 262.991 240.159 263.225 239.924L267.043 236.106C267.278 235.872 267.278 235.492 267.043 235.257C266.809 235.023 266.429 235.023 266.195 235.257L262.801 238.651L259.406 235.257C259.172 235.023 258.792 235.023 258.558 235.257C258.324 235.492 258.324 235.872 258.558 236.106L262.376 239.924ZM385.4 124C385.4 125.817 385.35 127.572 385.251 129.268L386.449 129.338C386.549 127.617 386.6 125.839 386.6 124H385.4ZM383.959 139.446C383.221 143.06 382.213 146.345 380.968 149.338L382.076 149.799C383.353 146.73 384.382 143.371 385.135 139.686L383.959 139.446ZM375.985 158.292C373.936 161.124 371.603 163.613 369.034 165.82L369.816 166.731C372.451 164.466 374.85 161.908 376.957 158.995L375.985 158.292ZM360.59 171.7C357.641 173.374 354.511 174.832 351.248 176.132L351.692 177.247C354.996 175.931 358.177 174.45 361.182 172.744L360.59 171.7ZM341.436 179.514C338.153 180.502 334.796 181.396 331.406 182.246L331.698 183.41C335.099 182.557 338.475 181.658 341.781 180.663L341.436 179.514ZM321.271 184.687C317.867 185.494 314.47 186.304 311.126 187.166L311.425 188.328C314.757 187.47 318.144 186.662 321.548 185.855L321.271 184.687ZM301.068 190.027C297.673 191.111 294.381 192.31 291.245 193.684L291.726 194.783C294.816 193.43 298.067 192.244 301.433 191.171L301.068 190.027ZM281.967 198.641C278.999 200.586 276.272 202.807 273.853 205.379L274.727 206.201C277.074 203.706 279.726 201.545 282.625 199.645L281.967 198.641ZM267.717 213.969C266.167 216.906 264.911 220.165 263.992 223.796L265.155 224.091C266.052 220.547 267.275 217.377 268.778 214.529L267.717 213.969ZM262.381 234.17C262.262 235.881 262.201 237.656 262.201 239.5H263.401C263.401 237.683 263.461 235.935 263.578 234.254L262.381 234.17Z" fill="#F7F7F7"/>
<path opacity="0.3" d="M814.6 124C814.6 123.669 814.331 123.4 814 123.4C813.669 123.4 813.4 123.669 813.4 124H814.6ZM679.147 239.924C679.381 240.159 679.761 240.159 679.995 239.924L683.814 236.106C684.048 235.872 684.048 235.492 683.814 235.257C683.579 235.023 683.199 235.023 682.965 235.257L679.571 238.651L676.177 235.257C675.942 235.023 675.563 235.023 675.328 235.257C675.094 235.492 675.094 235.872 675.328 236.106L679.147 239.924ZM813.4 124C813.4 125.714 813.351 127.374 813.255 128.981L814.453 129.053C814.55 127.421 814.6 125.737 814.6 124H813.4ZM812.012 138.587C811.311 141.97 810.356 145.07 809.177 147.916L810.286 148.376C811.495 145.455 812.471 142.283 813.187 138.83L812.012 138.587ZM804.536 156.388C802.641 159.082 800.482 161.486 798.1 163.645L798.906 164.534C801.35 162.319 803.568 159.849 805.517 157.078L804.536 156.388ZM790.305 169.44C787.578 171.113 784.675 172.594 781.633 173.923L782.114 175.023C785.199 173.675 788.152 172.169 790.933 170.463L790.305 169.44ZM772.478 177.385C769.417 178.391 766.268 179.298 763.062 180.14L763.367 181.3C766.59 180.454 769.763 179.54 772.853 178.525L772.478 177.385ZM753.505 182.46C750.312 183.186 747.098 183.881 743.889 184.577L744.143 185.75C747.351 185.054 750.571 184.357 753.771 183.63L753.505 182.46ZM734.269 186.71C731.024 187.458 727.815 188.24 724.676 189.09L724.989 190.248C728.109 189.404 731.303 188.625 734.539 187.879L734.269 186.71ZM715.222 191.972C712.031 193.077 708.955 194.302 706.036 195.691L706.551 196.774C709.423 195.408 712.456 194.199 715.615 193.106L715.222 191.972ZM697.418 200.646C694.67 202.566 692.155 204.729 689.924 207.189L690.813 207.995C692.977 205.608 695.423 203.504 698.105 201.63L697.418 200.646ZM684.221 215.358C682.751 218.17 681.561 221.265 680.688 224.682L681.851 224.979C682.701 221.648 683.859 218.64 685.285 215.914L684.221 215.358ZM679.147 234.453C679.03 236.077 678.971 237.758 678.971 239.5H680.171C680.171 237.785 680.229 236.133 680.344 234.539L679.147 234.453Z" fill="#F7F7F7"/>
<path opacity="0.6" d="M600.6 124C600.6 124.331 600.331 124.6 600 124.6C599.669 124.6 599.4 124.331 599.4 124H600.6ZM451.576 0.575736C451.81 0.341421 452.19 0.341421 452.424 0.575736L456.243 4.39411C456.477 4.62843 456.477 5.00833 456.243 5.24264C456.008 5.47696 455.628 5.47696 455.394 5.24264L452 1.84853L448.606 5.24264C448.372 5.47696 447.992 5.47696 447.757 5.24264C447.523 5.00833 447.523 4.62843 447.757 4.39411L451.576 0.575736ZM599.4 124C599.4 122.331 599.349 120.711 599.248 119.138L600.446 119.062C600.548 120.661 600.6 122.306 600.6 124H599.4ZM597.963 109.752C597.254 106.498 596.295 103.484 595.112 100.688L596.217 100.22C597.43 103.088 598.411 106.173 599.135 109.497L597.963 109.752ZM590.548 92.3881C588.729 89.7661 586.664 87.376 584.386 85.1864L585.218 84.3213C587.549 86.5625 589.667 89.0127 591.534 91.704L590.548 92.3881ZM576.981 79.21C574.402 77.4501 571.655 75.8483 568.77 74.3764L569.315 73.3074C572.239 74.7992 575.031 76.4266 577.657 78.2188L576.981 79.21ZM560.036 70.4452C557.117 69.281 554.105 68.2074 551.023 67.2012L551.396 66.0605C554.497 67.0731 557.534 68.1553 560.481 69.3306L560.036 70.4452ZM541.831 64.4275C538.766 63.5665 535.661 62.7473 532.538 61.9489L532.835 60.7863C535.964 61.5861 539.079 62.4079 542.156 63.2723L541.831 64.4275ZM523.204 59.6125C520.078 58.838 516.956 58.0637 513.862 57.2697L514.16 56.1074C517.248 56.8999 520.366 57.6731 523.493 58.4478L523.204 59.6125ZM504.553 54.7703C501.411 53.8787 498.322 52.9425 495.313 51.9384L495.693 50.8C498.681 51.7971 501.752 52.728 504.881 53.6159L504.553 54.7703ZM486.269 48.5834C483.213 47.3153 480.279 45.938 477.501 44.4216L478.076 43.3684C480.811 44.8611 483.705 46.2204 486.729 47.475L486.269 48.5834ZM469.35 39.1832C466.735 37.1915 464.342 34.9989 462.215 32.5671L463.119 31.7771C465.187 34.142 467.519 36.2804 470.077 38.2286L469.35 39.1832ZM456.701 24.5618C455.233 21.7812 454.044 18.7579 453.166 15.4616L454.326 15.1529C455.18 18.3641 456.337 21.3028 457.762 24.0017L456.701 24.5618ZM451.584 5.93389C451.462 4.34208 451.4 2.69819 451.4 1H452.6C452.6 2.66891 452.661 4.28218 452.781 5.84221L451.584 5.93389Z" fill="#F7F7F7"/>
<path opacity="0.3" d="M1028.6 124C1028.6 124.331 1028.33 124.6 1028 124.6C1027.67 124.6 1027.4 124.331 1027.4 124H1028.6ZM869.076 0.575736C869.31 0.341421 869.69 0.341421 869.924 0.575736L873.743 4.39411C873.977 4.62843 873.977 5.00833 873.743 5.24264C873.508 5.47696 873.128 5.47696 872.894 5.24264L869.5 1.84853L866.106 5.24264C865.872 5.47696 865.492 5.47696 865.257 5.24264C865.023 5.00833 865.023 4.62843 865.257 4.39411L869.076 0.575736ZM1027.4 124C1027.4 122.263 1027.34 120.579 1027.22 118.946L1028.42 118.86C1028.54 120.523 1028.6 122.235 1028.6 124H1027.4ZM1025.73 109.213C1024.91 105.849 1023.8 102.744 1022.42 99.8727L1023.51 99.3556C1024.92 102.304 1026.06 105.486 1026.9 108.929L1025.73 109.213ZM1017.23 91.4995C1015.2 88.9036 1012.91 86.54 1010.38 84.3767L1011.16 83.4655C1013.74 85.6762 1016.1 88.0966 1018.18 90.7603L1017.23 91.4995ZM1002.34 78.5643C999.573 76.8695 996.638 75.3245 993.563 73.9027L994.067 72.8135C997.178 74.2521 1000.16 75.8187 1002.96 77.5413L1002.34 78.5643ZM984.315 70.1134C981.243 68.9932 978.078 67.9573 974.845 66.9842L975.191 65.8351C978.442 66.8136 981.629 67.8566 984.727 68.986L984.315 70.1134ZM965.204 64.2938C961.994 63.4573 958.745 62.6596 955.479 61.8813L955.757 60.714C959.029 61.4935 962.286 62.2933 965.507 63.1326L965.204 64.2938ZM945.718 59.6014C942.449 58.8451 939.184 58.0891 935.948 57.3146L936.228 56.1476C939.459 56.9209 942.719 57.6759 945.988 58.4322L945.718 59.6014ZM926.214 54.8816C922.923 54.0143 919.686 53.1055 916.529 52.1334L916.882 50.9865C920.02 51.9527 923.241 52.8571 926.52 53.7212L926.214 54.8816ZM907.014 48.8895C903.792 47.6658 900.693 46.3401 897.751 44.8842L898.283 43.8086C901.185 45.2446 904.248 46.5553 907.44 47.7677L907.014 48.8895ZM889.026 39.8252C886.179 37.8784 883.564 35.7349 881.228 33.3561L882.084 32.5153C884.359 34.8317 886.912 36.9262 889.704 38.8346L889.026 39.8252ZM875.027 25.3486C873.344 22.5181 871.975 19.4299 870.962 16.0504L872.111 15.7057C873.097 18.9919 874.426 21.9898 876.059 24.7352L875.027 25.3486ZM869.114 6.13484C868.972 4.48042 868.9 2.76964 868.9 1H870.1C870.1 2.73697 870.171 4.41356 870.31 6.03247L869.114 6.13484Z" fill="#F7F7F7"/>
<defs>
<linearGradient id="paint0_linear" x1="8.04357e-06" y1="125" x2="1200" y2="125" gradientUnits="userSpaceOnUse">
<stop stop-color="#F7F7F7" stop-opacity="0"/>
<stop offset="0.15625" stop-color="#F7F7F7"/>
<stop offset="1" stop-color="#F7F7F7"/>
</linearGradient>
</defs>
</svg>
