<svg width="40" height="40" viewBox="0 0 40 40" fill="none" xmlns="http://www.w3.org/2000/svg">
<circle cx="20" cy="20" r="20" fill="#171819"/>
<path d="M24.125 9H15.875C12.0786 9 9 12.0786 9 15.875V24.125C9 27.9214 12.0786 31 15.875 31H24.125C27.9214 31 31 27.9214 31 24.125V15.875C31 12.0786 27.9214 9 24.125 9ZM28.9375 24.125C28.9375 26.7787 26.7787 28.9375 24.125 28.9375H15.875C13.2213 28.9375 11.0625 26.7787 11.0625 24.125V15.875C11.0625 13.2213 13.2213 11.0625 15.875 11.0625H24.125C26.7787 11.0625 28.9375 13.2213 28.9375 15.875V24.125Z" fill="white"/>
<path d="M20 14.5C16.9626 14.5 14.5 16.9626 14.5 20C14.5 23.0374 16.9626 25.5 20 25.5C23.0374 25.5 25.5 23.0374 25.5 20C25.5 16.9626 23.0374 14.5 20 14.5ZM20 23.4375C18.1052 23.4375 16.5625 21.8948 16.5625 20C16.5625 18.1039 18.1052 16.5625 20 16.5625C21.8948 16.5625 23.4375 18.1039 23.4375 20C23.4375 21.8948 21.8948 23.4375 20 23.4375Z" fill="white"/>
<path d="M25.9125 14.8204C26.3173 14.8204 26.6454 14.4922 26.6454 14.0875C26.6454 13.6827 26.3173 13.3546 25.9125 13.3546C25.5077 13.3546 25.1796 13.6827 25.1796 14.0875C25.1796 14.4922 25.5077 14.8204 25.9125 14.8204Z" fill="white"/>
</svg>
